<svg class="img-fluid" id="outputsvg" xmlns="http://www.w3.org/2000/svg" style="transform: matrix(1.11388, 0, 0, 1.11388, 0, 0); transform-origin: 50% 50%; cursor: move; max-height: none; transition: transform 200ms ease-in-out;" width="2048" height="1600" viewBox="0 0 20480 20480">
  <g id="l23VKEOzW6MDmN7Dbcgj1Zh" fill="rgba(232,231,231,0)" style="transform: none;">
    <g style="transform: none;">
      <path id="pSdsPwd3O" d="M0 10240 l0 -10240 10240 0 10240 0 0 10240 0 10240 -10240 0 -10240 0 0 -10240z m7061 4651 c112 -32 163 -69 193 -143 30 -72 15 -121 -54 -180 -56 -48 -123 -68 -275 -79 -168 -13 -185 -20 -185 -70 0 -21 4 -49 10 -63 9 -26 10 -26 127 -26 97 0 126 -4 163 -21 72 -33 111 -68 137 -126 26 -57 27 -68 7 -219 l-6 -51 43 -9 c31 -6 47 -17 58 -36 9 -15 12 -30 9 -34 -4 -4 -31 -1 -60 6 -92 21 -144 23 -195 6 -88 -29 -126 -30 -203 -7 -107 33 -177 104 -199 203 -14 59 6 128 54 191 48 63 47 97 -4 152 -41 44 -45 71 -15 96 8 6 14 30 14 53 0 34 -6 48 -31 72 -118 112 -72 241 102 288 79 21 230 20 310 -3z m4821 -3 c8 -7 31 -58 51 -113 20 -55 75 -203 121 -330 127 -343 206 -565 206 -576 0 -6 -16 -9 -37 -7 -36 3 -36 3 -65 88 -15 47 -58 172 -94 278 l-67 193 -35 -3 -36 -3 -97 -270 -97 -270 -41 -3 c-25 -2 -41 1 -41 8 0 11 64 184 194 528 36 95 66 185 66 200 0 15 -25 87 -54 160 l-55 132 33 0 c18 0 39 -6 48 -12z m-2594 -105 c-3 -38 -4 -38 -53 -43 -65 -8 -103 -29 -154 -86 -62 -71 -58 -99 24 -179 51 -49 74 -81 104 -146 21 -46 44 -108 50 -137 27 -130 4 -307 -55 -423 -79 -156 -260 -261 -428 -246 -169 14 -335 142 -396 305 -132 349 45 726 361 771 36 5 95 7 130 4 l65 -5 43 56 c74 96 190 165 279 166 32 0 33 -1 30 -37z m-3932 -223 c104 -51 163 -140 184 -278 21 -131 -13 -261 -89 -345 -148 -164 -439 -132 -544 61 -85 156 -70 367 34 485 75 86 157 119 278 112 57 -3 88 -11 137 -35z m2514 24 c97 -29 157 -80 204 -173 52 -103 58 -261 14 -378 -57 -152 -233 -241 -396 -199 -76 19 -126 50 -180 111 -112 127 -121 354 -21 505 81 121 237 176 379 134z m1914 5 c21 -6 57 -28 80 -49 l41 -39 -40 14 c-52 18 -137 19 -180 1 -68 -29 -70 -37 -73 -355 -3 -205 -7 -288 -15 -293 -21 -13 -74 -9 -87 7 -10 12 -12 71 -7 263 7 310 22 373 103 423 63 38 112 46 178 28z m1044 -25 c39 -20 58 -36 60 -50 l3 -21 -53 18 c-70 24 -242 26 -296 4 -83 -35 -123 -102 -130 -219 l-5 -79 149 6 c82 3 198 3 258 0 l109 -6 -6 -66 c-8 -86 -20 -127 -56 -183 -117 -184 -380 -168 -499 33 -50 83 -65 221 -36 332 20 76 36 108 81 157 73 82 153 112 281 106 66 -3 94 -10 140 -32z m2891 6 c20 -10 47 -30 61 -45 l25 -26 -28 10 c-16 6 -64 11 -107 11 -69 0 -82 -3 -108 -25 -45 -37 -52 -91 -52 -375 l0 -250 -50 0 -50 0 0 263 c0 295 7 343 63 403 59 64 160 78 246 34z m1574 18 c23 -7 61 -32 91 -61 48 -46 49 -48 14 -27 -77 44 -206 39 -263 -11 -56 -50 -75 -117 -75 -268 0 -140 11 -189 56 -248 39 -51 78 -67 164 -67 84 0 122 15 164 64 40 48 48 98 44 264 -3 133 -6 156 -25 194 l-23 42 29 0 c33 0 41 14 41 71 l0 40 43 -3 42 -3 1 -460 c1 -253 -1 -495 -3 -538 l-5 -78 -47 3 -46 3 1 218 1 217 -37 0 c-28 0 -43 -7 -66 -31 -64 -69 -169 -89 -247 -49 -166 86 -237 309 -168 531 47 151 183 236 314 197z m981 -3 c68 -18 116 -49 116 -75 0 -17 -2 -17 -42 -2 -62 23 -272 23 -313 0 -75 -41 -115 -117 -115 -219 l0 -59 183 0 c100 0 213 -3 251 -7 l69 -6 -6 -77 c-9 -135 -67 -225 -178 -275 -54 -24 -71 -27 -134 -23 -87 6 -142 34 -204 104 -62 71 -85 139 -86 259 0 155 48 271 141 337 77 55 205 72 318 43z m-3419 -4 c78 -6 125 -14 160 -30 115 -51 178 -159 161 -276 -10 -63 -76 -159 -126 -182 -34 -15 -40 -23 -40 -51 0 -25 9 -40 39 -67 49 -44 84 -124 85 -190 1 -90 -66 -175 -171 -219 -42 -17 -77 -20 -262 -24 -172 -3 -215 -1 -222 9 -5 8 -9 242 -9 521 l0 507 113 4 c61 1 123 3 137 4 14 1 75 -2 135 -6z m-9227 -424 l2 -418 36 3 36 3 48 125 c68 178 193 499 238 610 38 94 39 95 75 98 37 3 38 2 61 -50 33 -76 70 -173 195 -508 l109 -295 36 -3 36 -3 0 430 0 431 54 0 c35 0 55 -4 57 -12 2 -7 3 -244 1 -525 l-3 -513 -87 0 c-48 0 -92 4 -98 8 -10 6 -137 339 -281 735 l-35 97 -37 0 -37 0 -49 -127 c-27 -71 -102 -258 -166 -418 l-116 -290 -91 -3 -92 -3 0 526 0 526 53 -3 52 -3 3 -418z m2252 168 c5 -242 6 -252 30 -299 14 -28 42 -64 63 -80 35 -28 47 -31 122 -34 62 -3 90 0 114 13 58 30 64 58 68 360 2 149 5 276 8 283 2 7 21 12 44 12 31 0 43 -5 51 -21 8 -14 11 -104 8 -287 -3 -262 -4 -268 -28 -317 -32 -63 -93 -110 -155 -119 -84 -13 -152 14 -225 88 -35 36 -51 46 -77 46 l-33 0 0 -59 c0 -64 -10 -74 -62 -64 -25 5 -25 7 -31 140 -9 173 -9 556 -1 578 5 12 17 15 53 13 l46 -3 5 -250z m4218 -85 c1 -184 0 -345 -3 -358 -5 -21 -11 -23 -53 -20 l-47 3 -5 270 c-3 149 -9 277 -14 285 -5 8 -18 25 -29 38 l-20 22 30 0 c33 0 43 17 43 73 0 27 1 28 48 25 l47 -3 3 -335z m1142 113 c0 -243 6 -287 47 -341 39 -52 70 -67 152 -72 73 -5 75 -6 82 -34 12 -43 -6 -59 -56 -54 -50 6 -112 46 -144 93 -19 28 -30 35 -57 35 l-33 0 -3 -57 -3 -58 -40 0 -40 0 -3 345 c-1 190 0 351 3 357 2 8 23 13 50 13 l45 0 0 -227z m2758 -130 l2 -353 -24 -6 c-13 -3 -37 -4 -52 -2 l-29 3 -5 265 c-5 251 -6 267 -27 303 l-22 37 29 0 c30 0 30 1 30 56 l0 55 48 -3 47 -3 3 -352z m357 -3 l0 -355 -45 0 -45 0 -3 358 -2 358 47 -3 48 -3 0 -355z m373 -182 l2 -538 -55 0 -55 0 0 524 c0 288 3 532 6 541 5 12 17 15 53 13 l46 -3 3 -537z m2002 338 c0 -231 9 -295 48 -350 43 -63 71 -78 152 -84 l71 -5 -3 -46 c-3 -45 -3 -46 -37 -44 -42 2 -108 47 -140 96 -20 30 -30 37 -56 37 -28 0 -33 -4 -39 -31 -3 -17 -6 -44 -6 -60 0 -27 -3 -29 -40 -29 l-40 0 0 360 0 360 45 0 45 0 0 -204z m-2399 -749 c44 -34 44 -83 -2 -107 -16 -9 -27 -7 -52 7 -39 23 -45 51 -17 86 23 29 46 34 71 14z m-2505 -1141 c61 -28 117 -83 152 -151 24 -46 27 -62 32 -210 l5 -160 50 -11 c28 -7 111 -13 186 -13 149 -1 204 11 324 71 130 66 262 183 352 311 30 42 58 77 62 77 12 0 61 -40 61 -49 0 -17 -102 -164 -147 -212 -134 -143 -387 -258 -570 -259 l-53 0 0 -33 c0 -29 7 -39 47 -67 74 -54 250 -227 318 -315 137 -176 218 -315 318 -545 103 -238 171 -503 219 -850 20 -149 17 -644 -5 -795 -43 -287 -104 -530 -199 -783 -112 -303 -328 -672 -545 -933 -164 -197 -438 -455 -655 -618 l-57 -42 -103 69 c-269 180 -525 446 -769 797 -446 640 -695 1543 -625 2265 46 479 160 842 379 1208 90 151 177 263 302 388 134 136 243 216 397 295 l118 60 0 134 c0 191 32 270 141 345 93 63 167 71 265 26z m-1681 -555 c105 -11 254 -32 333 -46 78 -14 147 -25 153 -25 5 0 -21 -35 -58 -77 -136 -155 -273 -350 -362 -516 l-53 -98 -37 75 c-93 184 -235 304 -422 356 -102 28 -304 28 -413 0 -107 -27 -205 -81 -291 -162 -91 -85 -125 -137 -167 -258 l-33 -95 0 -211 0 -212 -80 -6 c-218 -18 -570 -96 -818 -183 -223 -77 -433 -190 -550 -294 l-58 -51 3 539 3 538 34 70 c42 85 162 210 266 277 327 211 848 347 1520 397 212 16 814 6 1030 -18z m-522 -684 c105 -52 187 -159 216 -282 20 -85 -9 -177 -86 -272 -26 -32 -53 -73 -60 -93 -18 -51 -16 -139 5 -180 21 -44 56 -61 144 -70 38 -4 71 -10 74 -12 2 -3 -3 -54 -11 -114 -22 -152 -30 -535 -16 -724 6 -85 20 -222 32 -303 11 -82 19 -150 17 -152 -2 -2 -121 0 -263 5 -244 9 -632 0 -734 -16 l-40 -6 -3 350 -3 351 -29 30 c-44 46 -82 54 -222 49 -116 -5 -126 -7 -165 -34 -100 -71 -153 -83 -217 -50 -91 47 -155 143 -154 231 1 133 82 235 220 279 155 49 453 96 730 114 97 7 128 13 149 28 44 33 63 81 63 159 0 64 -4 76 -35 125 -19 30 -49 84 -67 120 -61 123 -40 262 57 369 114 126 264 163 398 98z m-1851 -1299 c-7 -174 46 -318 159 -431 138 -138 305 -179 582 -141 l47 7 0 -191 0 -190 -72 -12 c-40 -6 -143 -27 -228 -46 -393 -88 -692 -216 -892 -381 l-78 -64 0 498 0 498 28 81 c16 44 44 102 62 130 42 61 137 157 210 211 55 41 169 113 179 113 3 0 5 -37 3 -82z m2123 -1248 c150 -15 136 -5 174 -122 46 -142 155 -415 209 -523 134 -269 327 -566 479 -737 24 -28 42 -52 40 -54 -2 -2 -43 5 -91 16 -400 95 -975 143 -1465 121 -146 -7 -285 -14 -308 -18 l-43 -6 0 346 c0 221 -4 354 -11 369 -5 13 -26 35 -46 48 -33 22 -47 25 -132 25 -124 -1 -167 -21 -248 -113 -88 -101 -123 -131 -182 -159 -53 -25 -54 -26 -106 -9 -61 19 -137 82 -165 136 -37 73 -44 122 -25 186 18 64 57 145 87 184 53 70 157 165 203 186 91 41 452 104 720 124 77 6 160 12 185 14 84 7 624 -3 725 -14z m-2238 -397 c-7 -22 -11 -104 -11 -193 0 -142 2 -161 27 -234 49 -141 128 -233 252 -296 73 -36 141 -50 249 -50 104 0 187 20 294 70 47 22 86 40 88 40 2 0 4 -67 4 -149 l0 -149 -72 -12 c-117 -19 -334 -69 -455 -106 -288 -87 -535 -217 -680 -359 l-63 -61 0 541 c0 598 1 611 63 713 39 65 158 181 246 240 35 23 65 42 66 42 2 0 -2 -17 -8 -37z m2178 -1243 c862 -64 1511 -302 1653 -608 36 -76 35 -130 -2 -207 -179 -365 -1035 -639 -2001 -639 -671 0 -1261 119 -1655 331 -234 127 -373 293 -357 429 7 67 52 147 120 214 255 253 829 428 1587 483 110 8 528 6 655 -3z"></path>
      <path id="pEgNem8Sm" d="M6795 14831 c-83 -15 -115 -50 -115 -125 0 -61 30 -113 76 -132 41 -17 230 -19 303 -3 28 6 62 19 76 30 22 18 25 28 25 85 0 56 -3 68 -25 90 -14 14 -41 32 -61 40 -41 17 -217 27 -279 15z"></path>
      <path id="peTHcJ6XR" d="M6793 14239 c-50 -32 -66 -78 -61 -178 6 -137 48 -176 188 -176 86 1 126 17 162 67 19 27 24 48 26 118 5 148 -37 190 -193 190 -73 0 -96 -4 -122 -21z"></path>
      <path id="pTPIG2JL8" d="M8713 14510 c-126 -27 -212 -122 -248 -272 -18 -75 -20 -274 -4 -350 25 -119 87 -202 184 -249 52 -25 72 -29 147 -29 136 0 223 41 288 135 52 76 71 146 77 281 6 136 -6 232 -40 303 -30 65 -122 156 -172 171 -55 15 -181 21 -232 10z"></path>
      <path id="pKjSeHHVu" d="M5096 14515 c-91 -32 -136 -126 -136 -285 0 -171 36 -265 120 -308 39 -20 56 -23 131 -20 110 5 147 26 186 106 25 51 28 70 32 176 4 157 -14 232 -74 291 -24 25 -55 44 -74 48 -54 11 -143 7 -185 -8z"></path>
      <path id="pJGVDjbN7" d="M7678 14520 c-49 -15 -86 -50 -115 -107 -23 -48 -28 -73 -31 -157 -8 -176 25 -278 106 -332 64 -43 192 -42 269 2 73 42 110 159 100 314 -14 209 -85 291 -247 289 -30 0 -67 -4 -82 -9z"></path>
      <path id="p10rG1QU0A" d="M10420 14110 c0 -80 15 -123 56 -162 40 -37 75 -48 155 -48 135 0 193 61 187 197 l-3 68 -50 7 c-27 3 -116 7 -197 7 l-148 1 0 -70z"></path>
      <path id="paRXCF9kf" d="M15920 14170 c-9 -6 -11 -23 -5 -66 18 -149 77 -204 217 -204 92 0 135 20 164 78 23 44 42 169 27 182 -11 10 -387 20 -403 10z"></path>
      <path id="pmmMba6Uv" d="M12598 14499 c-16 -9 -18 -30 -18 -203 0 -168 2 -195 16 -200 9 -3 90 -6 180 -6 188 0 223 10 269 77 22 34 25 48 25 129 0 78 -3 96 -22 124 -36 52 -69 71 -144 80 -94 13 -285 12 -306 -1z"></path>
      <path id="pdBvR3Vkq" d="M12588 14014 c-9 -9 -10 -339 -2 -371 6 -22 11 -23 118 -23 267 1 322 34 320 197 -1 71 -5 88 -27 121 -41 63 -79 75 -252 80 -82 2 -153 1 -157 -4z"></path>
      <path id="pCSE7vlu3" d="M11675 11648 c-3 -7 -25 -83 -50 -168 -274 -937 -282 -2081 -21 -2850 47 -137 56 -150 106 -150 26 0 47 7 59 19 45 45 153 427 196 695 44 274 50 371 50 771 -1 409 -12 551 -71 895 -45 267 -129 622 -175 747 -19 50 -22 53 -55 53 -19 0 -37 -6 -39 -12z"></path>
    </g>
  </g>
  <g id="l3Rw8zLGFNKpqJiwnHRgt2n" fill="rgb(52,62,71)" style="transform: none;">
    <g style="transform: none;">
      <path id="pGLBapLT5" d="M11764 14916 c-3 -7 22 -80 54 -161 l60 -147 -28 -77 c-16 -42 -62 -164 -103 -271 -41 -107 -89 -235 -106 -283 -17 -48 -35 -96 -41 -107 -14 -25 -3 -30 73 -36 42 -3 68 0 78 8 9 7 58 130 109 273 50 143 96 264 100 268 6 7 75 -180 169 -463 l28 -85 78 -3 77 -3 -6 27 c-8 32 -109 312 -222 619 -46 127 -101 275 -121 330 -20 55 -43 106 -51 113 -22 17 -141 16 -148 -2z m165 -241 c38 -108 146 -392 186 -490 7 -16 27 -73 44 -125 17 -52 38 -100 46 -106 8 -6 15 -23 15 -37 0 -14 6 -28 13 -30 6 -3 0 -6 -15 -6 -22 -1 -28 4 -28 19 0 11 -14 59 -31 108 -18 48 -40 114 -51 147 -11 33 -26 74 -34 92 -8 17 -14 36 -14 42 0 6 -4 19 -10 29 -5 9 -18 38 -29 65 l-20 47 -49 0 c-56 0 -49 9 -114 -165 -34 -91 -42 -112 -102 -285 -21 -60 -40 -96 -49 -98 -13 -3 -11 11 13 80 34 100 85 239 135 368 81 211 87 232 82 290 -5 54 -76 226 -101 242 -6 5 -1 8 12 8 12 0 22 6 22 13 0 12 25 -52 79 -208z"></path>
      <path id="pFic91jbr" d="M9144 14832 c-68 -24 -142 -80 -194 -147 l-42 -55 -52 6 c-79 9 -202 -12 -273 -46 -207 -102 -317 -364 -270 -645 28 -168 90 -279 202 -362 81 -60 152 -85 261 -91 160 -8 281 36 377 137 100 105 148 241 149 421 1 132 -14 203 -63 309 -30 65 -53 97 -105 147 -73 71 -73 63 -10 132 41 45 81 65 141 72 l50 5 3 68 3 67 -63 0 c-35 -1 -86 -9 -114 -18z m-394 -286 c0 -9 -15 -17 -40 -21 -22 -4 -42 -11 -46 -16 -3 -5 -14 -9 -24 -9 -10 0 -25 -7 -34 -15 -8 -8 -19 -15 -25 -15 -6 0 -13 -11 -17 -25 -3 -14 -13 -25 -23 -25 -43 0 -106 -129 -121 -250 -21 -177 -4 -331 46 -405 13 -20 24 -39 24 -43 0 -16 88 -91 135 -115 90 -47 249 -46 346 3 84 43 160 155 190 280 17 71 17 289 0 360 -16 66 -34 102 -74 153 -40 52 -24 62 20 12 42 -48 62 -86 99 -190 25 -71 29 -93 29 -195 0 -120 -3 -132 -59 -250 -66 -141 -183 -222 -352 -244 -134 -18 -303 73 -390 210 -34 53 -78 192 -88 279 -7 69 33 264 62 294 7 7 16 27 19 43 3 16 12 32 19 35 8 3 14 11 14 17 0 29 132 122 193 136 55 13 97 11 97 -4z m164 -77 c51 -13 142 -103 173 -170 49 -104 55 -304 14 -421 -69 -198 -257 -290 -426 -209 -133 64 -195 187 -195 389 1 314 176 479 434 411z"></path>
      <path id="pi9wdAPUn" d="M9638 14620 c-41 -12 -94 -47 -111 -73 -41 -62 -49 -124 -54 -409 -5 -215 -3 -281 7 -293 8 -10 31 -15 70 -15 71 0 90 7 90 31 0 17 -8 19 -61 19 l-61 0 4 93 c3 73 9 101 29 137 l24 45 3 -52 c3 -51 4 -53 33 -53 l29 0 0 158 c1 180 9 228 45 259 68 59 205 22 258 -71 8 -14 14 -106 17 -291 l5 -270 77 -3 c74 -3 78 -2 83 20 3 13 4 187 3 388 l-3 365 -77 3 c-77 3 -78 3 -79 -23 -1 -14 -3 -29 -4 -35 -1 -5 -3 -17 -4 -26 -1 -12 -17 -2 -54 34 -32 30 -70 55 -93 61 -45 13 -136 13 -176 1z m72 -74 c-25 -6 -55 -17 -68 -24 -30 -17 -62 -70 -62 -104 0 -35 -16 -44 -30 -18 -35 65 67 159 170 158 34 0 34 -1 -10 -12z m350 -337 c0 -307 -2 -341 -16 -335 -9 3 -19 6 -24 6 -4 0 -10 114 -12 253 -3 241 -4 254 -26 290 -24 42 -22 57 9 57 14 0 19 7 19 28 0 33 7 42 32 42 17 0 18 -17 18 -341z"></path>
      <path id="pwL8rJ77r" d="M10530 14617 c-82 -23 -165 -90 -204 -164 -45 -88 -60 -275 -31 -387 42 -162 162 -258 324 -259 94 -1 148 14 203 56 84 64 128 173 128 318 l0 67 -77 5 c-43 2 -158 3 -257 1 l-179 -2 6 48 c11 92 66 165 143 190 60 20 189 9 258 -23 32 -15 62 -24 67 -21 15 9 10 42 -8 53 -17 10 -17 10 0 11 14 0 18 7 15 28 -2 22 -14 32 -62 56 -53 27 -70 30 -170 33 -69 2 -128 -2 -156 -10z m120 -66 c-94 -7 -158 -32 -175 -69 -5 -12 -15 -22 -21 -22 -18 0 -33 -23 -55 -82 -20 -55 -26 -163 -9 -173 6 -4 6 -15 0 -31 -27 -71 2 -189 61 -250 l31 -32 -26 5 c-14 3 -26 10 -26 15 0 5 -11 24 -25 42 -113 148 -102 394 24 529 52 57 108 75 226 74 l80 0 -85 -6z m230 -419 c0 -44 -7 -72 -30 -120 -17 -34 -32 -62 -34 -62 -2 0 3 24 11 53 7 28 12 77 11 107 -3 47 -7 56 -28 67 -24 12 -22 13 23 13 l47 0 0 -58z m-145 10 c49 -7 50 -8 53 -45 5 -56 -31 -123 -79 -147 -120 -62 -259 25 -259 161 l0 39 118 -1 c64 0 140 -4 167 -7z m-82 -289 c-13 -2 -35 -2 -50 0 -16 2 -5 4 22 4 28 0 40 -2 28 -4z"></path>
      <path id="pDHks05W4" d="M13515 14616 c-22 -9 -54 -31 -72 -50 -52 -56 -63 -114 -63 -328 0 -181 1 -188 20 -188 19 0 20 7 20 103 0 56 4 138 9 183 11 91 30 127 99 187 47 40 71 44 137 22 l40 -13 -67 -1 c-57 -1 -69 -4 -82 -23 -9 -12 -16 -30 -16 -40 0 -12 -8 -18 -24 -18 -31 0 -36 -30 -36 -247 l0 -173 30 0 30 0 0 155 c0 188 11 245 52 280 49 41 152 33 206 -18 54 -50 57 -63 62 -347 l5 -265 60 -3 c32 -2 70 -1 82 3 l23 5 -2 383 -3 382 -77 3 -78 3 0 -58 0 -57 -47 46 c-27 25 -63 54 -82 63 -47 24 -174 30 -226 11z m443 -403 l2 -333 -25 0 -25 0 0 188 c-1 178 -10 308 -25 343 -3 9 1 23 9 32 10 10 16 33 16 62 0 42 2 46 23 43 l22 -3 3 -332z"></path>
      <path id="p664vTwfz" d="M15145 14621 c-52 -13 -91 -39 -134 -87 -54 -62 -82 -148 -88 -279 -10 -207 58 -355 196 -426 91 -47 232 -25 301 46 19 19 37 35 40 35 3 0 4 -56 2 -125 -4 -121 -4 -125 16 -125 27 0 34 47 30 185 -3 94 -4 100 -25 103 l-21 3 19 42 c11 25 19 65 19 100 0 50 -2 57 -20 57 -14 0 -20 -7 -20 -22 0 -70 -44 -144 -103 -175 -39 -20 -115 -20 -155 1 -75 39 -112 126 -112 267 0 119 23 192 75 237 115 102 295 -3 295 -172 0 -19 5 -26 20 -26 18 0 20 7 20 55 0 30 -8 74 -17 97 -12 30 -13 43 -5 46 7 2 12 12 12 23 0 10 7 19 15 19 9 0 15 9 15 25 0 25 13 31 44 19 12 -5 16 -21 16 -75 0 -39 -4 -69 -10 -69 -6 0 -10 -80 -10 -220 0 -140 4 -220 10 -220 6 0 10 -18 10 -40 0 -22 -4 -40 -10 -40 -6 0 -10 -33 -10 -80 0 -47 4 -80 10 -80 17 0 13 -169 -5 -186 -8 -9 -15 -26 -15 -40 0 -21 5 -24 34 -24 32 0 34 2 38 37 3 21 4 276 4 568 l-1 530 -72 3 -73 3 -2 -28 c-1 -15 -2 -35 -4 -43 -1 -8 -2 -20 -3 -26 -1 -5 -25 13 -53 41 -33 31 -69 55 -94 63 -45 13 -131 14 -179 3z m80 -71 c-3 -5 -12 -10 -19 -10 -22 0 -100 -47 -124 -75 -41 -47 -54 -95 -59 -222 -5 -98 -2 -134 12 -188 10 -37 24 -69 32 -72 7 -3 13 -13 13 -24 0 -10 20 -32 47 -51 40 -27 60 -33 123 -38 73 -5 74 -6 33 -14 -241 -45 -404 305 -264 569 28 53 90 116 125 127 34 10 88 9 81 -2z"></path>
      <path id="puyHUwUpe" d="M16016 14615 c-98 -27 -174 -107 -212 -223 -15 -44 -19 -86 -19 -187 1 -150 18 -210 82 -285 41 -48 117 -100 145 -100 22 0 25 35 4 47 -8 4 36 8 99 8 121 0 129 -6 28 -25 -63 -12 -83 -32 -44 -45 31 -10 135 12 188 39 108 54 154 140 161 297 l4 106 -68 6 c-38 4 -151 7 -251 7 l-183 0 0 29 c0 70 50 155 111 186 65 34 218 26 300 -16 21 -10 43 -19 49 -19 6 0 10 25 10 59 0 54 -3 61 -29 80 -67 48 -263 66 -375 36z m253 -71 c2 -2 -12 -4 -32 -4 -20 0 -37 4 -37 10 0 8 58 3 69 -6z m-336 -86 c-27 -30 -51 -107 -59 -190 -4 -38 -13 -73 -20 -79 -8 -6 -15 -23 -15 -38 -1 -20 -3 -16 -10 14 -10 49 -4 100 22 183 18 57 31 80 67 118 23 24 37 15 15 -8z m423 -276 c13 -9 4 -178 -11 -204 -17 -29 -85 -98 -97 -98 -6 0 6 15 25 33 20 18 43 52 52 76 18 52 20 172 3 189 -9 9 -9 12 3 12 7 0 19 -4 25 -8z m-70 -47 c16 -5 0 -98 -23 -137 -46 -79 -180 -92 -251 -25 -13 12 -30 34 -38 50 -19 35 -34 115 -23 119 12 4 321 -2 335 -7z m-416 -87 c0 -5 8 -21 18 -36 10 -15 33 -49 51 -77 l32 -50 -48 51 c-33 34 -53 67 -65 105 -14 43 -14 50 -3 35 8 -11 15 -24 15 -28z"></path>
      <path id="pkwyXC1N6" d="M12518 14612 l-78 -3 0 -214 c0 -208 1 -215 20 -215 19 0 20 7 20 175 0 156 2 175 18 183 22 11 382 3 382 -9 0 -5 -69 -9 -153 -9 -106 0 -157 -4 -165 -12 -9 -9 -12 -69 -12 -210 0 -245 -4 -238 120 -238 95 0 135 -13 73 -23 -21 -4 -66 -7 -100 -7 -100 0 -93 15 -93 -206 0 -247 -8 -234 148 -234 149 0 232 21 232 59 0 6 11 11 25 11 16 0 25 6 25 15 0 8 8 15 19 15 13 0 21 10 26 33 16 75 16 133 1 177 -8 24 -13 46 -11 49 9 8 37 -23 57 -63 35 -66 39 -122 15 -186 -12 -30 -25 -57 -29 -58 -5 -2 -14 -9 -21 -16 -30 -29 -92 -56 -140 -61 -52 -5 -238 -14 -309 -15 -32 0 -38 -3 -38 -21 0 -21 2 -21 198 -17 168 4 204 7 245 24 66 28 111 65 144 122 24 41 28 57 28 127 -1 98 -28 167 -87 221 -22 19 -38 36 -36 37 1 1 20 11 41 21 49 25 113 121 123 182 10 69 -1 165 -24 209 -28 54 -77 100 -137 126 -54 24 -236 42 -375 37 -41 -2 -110 -4 -152 -6z m356 -142 c113 -14 166 -70 166 -174 0 -74 -29 -125 -91 -156 -35 -18 -57 -21 -176 -19 -75 0 -142 3 -150 6 -10 4 -13 42 -13 169 0 145 2 164 18 173 21 13 153 13 246 1z m254 -93 c30 -83 5 -202 -50 -236 -30 -18 -32 -8 -6 34 18 32 22 53 22 137 1 103 12 125 34 65z m-225 -412 c105 -49 122 -210 31 -278 -44 -33 -312 -54 -315 -24 -5 40 -6 313 -1 321 2 5 59 6 126 4 89 -3 131 -10 159 -23z"></path>
      <path id="pQFoQ8RZM" d="M11117 14603 c-4 -3 -7 -177 -7 -385 0 -338 2 -379 16 -385 9 -3 20 0 25 8 4 7 8 166 9 352 0 187 3 343 6 348 10 17 34 9 39 -13 3 -13 1 -111 -4 -218 -10 -192 -10 -196 13 -245 12 -28 30 -58 39 -66 15 -15 13 -17 -23 -23 l-40 -6 0 -71 0 -70 33 3 c32 3 32 4 37 62 l5 60 25 -37 c46 -69 138 -112 212 -101 52 9 62 24 55 84 -3 28 -9 55 -12 60 -3 6 -36 10 -73 10 -76 0 -114 18 -155 72 -41 54 -47 98 -47 341 l0 227 -73 0 c-41 0 -77 -3 -80 -7z m371 -722 c5 -29 -32 -28 -82 3 l-38 23 58 -3 c51 -2 59 -5 62 -23z"></path>
      <path id="pPd8Nb1WG" d="M14228 14273 c-2 -186 -1 -360 2 -388 l5 -50 75 0 75 0 3 123 c3 129 3 129 -45 116 -22 -6 -23 -11 -23 -100 0 -94 0 -94 -25 -94 l-25 0 2 333 3 332 50 5 c46 5 50 7 53 33 l3 27 -75 0 -75 0 -3 -337z"></path>
      <path id="pa7Jr6Km8" d="M14596 14595 c-3 -9 -6 -266 -6 -571 l0 -554 85 0 85 0 -2 568 -3 567 -76 3 c-63 2 -78 0 -83 -13z m94 -559 c0 -347 -3 -517 -10 -521 -6 -4 -17 -1 -25 5 -22 18 -22 432 0 483 20 49 21 276 0 332 -14 40 -21 196 -8 208 3 4 15 7 25 7 17 0 18 -22 18 -514z"></path>
      <path id="pyE979syV" d="M16604 14564 c3 -26 6 -64 6 -85 0 -32 3 -39 20 -39 17 0 20 7 20 51 0 47 2 50 23 47 22 -3 22 -4 27 -238 3 -129 7 -236 8 -237 13 -11 30 -34 43 -59 l15 -29 -38 3 -38 4 0 -56 c0 -49 -2 -56 -20 -56 -18 0 -20 7 -20 75 0 68 -2 75 -20 75 -19 0 -20 -7 -20 -94 l0 -94 43 -6 c23 -3 56 -2 72 2 28 8 30 11 31 60 1 29 3 55 6 57 2 3 16 -12 29 -32 13 -21 43 -51 67 -68 37 -25 53 -30 105 -30 l62 0 3 78 3 77 -48 0 c-74 0 -118 17 -153 57 -63 71 -69 105 -69 386 l-1 197 -81 0 -82 0 7 -46z m366 -679 c0 -19 -5 -25 -23 -25 -13 0 -38 11 -57 25 l-34 25 57 0 c54 0 57 -1 57 -25z"></path>
      <path id="puG4F0AzT" d="M14320 14210 l0 -120 35 0 35 0 0 120 0 120 -35 0 -35 0 0 -120z"></path>
      <path id="pjkycqB76" d="M12440 13970 c0 -103 1 -110 20 -110 19 0 20 7 20 110 0 103 -1 110 -20 110 -19 0 -20 -7 -20 -110z"></path>
      <path id="pJvrGV5Ku" d="M13380 13941 c0 -92 2 -100 21 -106 11 -4 22 -5 24 -3 1 1 0 49 -3 106 -4 91 -7 102 -23 102 -17 0 -19 -9 -19 -99z"></path>
      <path id="p8bOs2y96" d="M13480 13946 c0 -24 -3 -58 -6 -75 -6 -30 -6 -31 30 -31 l36 0 0 75 0 75 -30 0 c-29 0 -30 -2 -30 -44z"></path>
      <path id="p15wNZlZCX" d="M14261 13667 c-68 -34 -78 -131 -18 -167 18 -11 38 -20 45 -20 21 0 13 40 -13 63 -22 20 -23 24 -10 41 21 27 65 8 65 -29 0 -14 -4 -25 -10 -25 -5 0 -10 -11 -10 -25 0 -33 32 -33 65 0 45 44 29 132 -30 160 -40 18 -52 19 -84 2z"></path>
      <path id="pCx8CJckQ" d="M15462 13563 c3 -83 4 -88 26 -91 21 -3 22 0 22 65 0 88 -7 113 -32 113 -17 0 -19 -7 -16 -87z"></path>
      <path id="p5bIDyx6F" d="M9085 11979 c-671 -50 -1193 -186 -1520 -397 -104 -67 -224 -192 -266 -277 l-34 -70 -3 -600 -3 -601 83 81 c167 161 427 290 793 393 180 51 454 104 600 117 122 11 114 2 98 92 -9 50 -13 125 -10 208 3 114 7 141 36 225 41 120 75 173 166 258 133 124 282 182 469 182 210 0 388 -84 511 -242 57 -73 120 -191 131 -246 4 -18 9 -32 13 -32 3 0 33 53 66 118 102 200 271 441 425 605 40 43 71 79 69 81 -2 2 -40 11 -84 20 -347 68 -564 87 -1030 91 -214 2 -444 -1 -510 -6z m436 -68 c-7 -5 -17 -28 -23 -52 -5 -24 -13 -60 -17 -79 l-9 -35 -1 45 c-1 25 -10 59 -21 78 -11 18 -20 37 -20 42 0 6 24 10 53 10 33 0 47 -3 38 -9z m-1433 -306 c-3 -104 -6 -125 -18 -123 -8 2 -21 17 -30 33 -19 37 -25 42 -69 50 -19 4 -41 15 -49 26 -7 10 -23 19 -35 19 -12 0 -30 7 -41 15 -17 13 -16 15 19 29 21 9 40 16 44 16 3 0 40 13 81 29 41 17 81 30 88 30 9 1 12 -28 10 -124z m2229 -106 c-8 -21 -13 -26 -15 -15 -2 10 2 23 8 31 18 22 20 18 7 -16z m-2051 -66 c-8 -8 -35 27 -36 46 0 7 10 2 21 -13 12 -15 18 -30 15 -33z m677 20 c-7 -3 -13 -11 -13 -19 0 -8 -9 -24 -20 -36 -11 -12 -20 -28 -20 -35 0 -7 -9 -13 -20 -13 -13 0 -20 -7 -20 -20 0 -11 -3 -20 -8 -20 -4 0 -12 -15 -18 -32 -6 -18 -23 -64 -37 -102 -19 -50 -28 -99 -33 -173 -4 -57 -11 -103 -15 -103 -5 0 -8 -35 -7 -79 1 -76 0 -79 -32 -109 -31 -30 -85 -50 -98 -37 -3 3 0 15 7 27 20 32 5 191 -23 243 -11 22 -24 42 -27 45 -3 3 -1 35 5 72 10 60 16 71 51 102 22 19 56 48 75 65 19 17 59 50 88 72 28 22 52 45 52 50 0 13 113 120 119 112 3 -3 0 -8 -6 -10z m1305 -63 c-7 -11 -19 -20 -27 -20 -8 0 -4 8 10 20 30 25 32 25 17 0z m-2630 -252 c7 -7 12 -31 12 -55 0 -55 37 -93 92 -93 20 0 43 -7 52 -15 8 -8 26 -19 39 -24 20 -8 26 -19 32 -60 6 -45 10 -52 43 -68 34 -17 38 -23 50 -83 16 -81 32 -119 54 -126 10 -3 18 -14 18 -24 0 -10 5 -22 10 -25 12 -7 4 -25 -11 -25 -5 0 -9 9 -9 20 0 21 -41 70 -58 70 -5 0 -19 12 -33 26 -24 25 -25 25 -134 19 -113 -8 -145 -19 -145 -55 0 -9 -5 -28 -12 -42 -13 -28 -75 -48 -148 -48 -30 0 -39 -4 -45 -22 -4 -14 -8 -18 -12 -10 -2 6 -13 12 -24 12 -14 0 -19 7 -19 25 0 18 -5 25 -18 25 -19 0 -20 2 -34 235 -1 11 -1 61 0 110 l2 90 101 -3 c119 -5 128 1 129 89 0 31 3 59 7 62 11 11 48 8 61 -5z m-122 -823 c-8 -8 -20 -15 -26 -15 -6 0 -13 -7 -16 -15 -4 -8 -13 -15 -20 -15 -8 0 -26 -7 -39 -16 -15 -10 -25 -12 -25 -5 0 6 6 11 13 11 10 0 52 30 82 59 6 6 18 10 28 11 16 0 17 -2 3 -15z"></path>
      <path id="p1Bulg7YDm" d="M9432 11310 c-123 -18 -246 -111 -300 -228 -24 -50 -27 -69 -27 -162 0 -99 2 -109 33 -170 18 -36 48 -90 67 -120 41 -63 46 -116 16 -170 -33 -62 -57 -72 -193 -82 -277 -18 -575 -65 -730 -114 -150 -48 -220 -145 -221 -309 -1 -68 3 -88 25 -131 50 -96 130 -148 228 -149 68 0 97 11 178 68 35 25 52 29 134 34 110 7 152 -4 194 -48 l29 -30 5 -352 c3 -226 9 -351 15 -351 175 25 753 34 990 15 61 -4 111 -8 112 -7 1 1 -2 19 -7 41 -19 85 -50 327 -61 480 -15 201 -6 513 20 700 11 77 18 141 16 143 -1 1 -36 7 -76 11 -90 11 -122 23 -143 53 -43 61 -28 137 47 231 108 135 124 282 49 432 -78 157 -233 240 -400 215z m447 -1006 c2 -2 -6 -73 -19 -156 -13 -84 -25 -181 -28 -215 -4 -63 -15 -81 -27 -43 -5 17 -15 20 -61 20 l-54 0 26 58 c23 50 26 74 31 205 l6 149 61 -7 c34 -4 63 -9 65 -11z m-49 -595 c0 -11 -4 -17 -10 -14 -5 3 -10 13 -10 21 0 8 5 14 10 14 6 0 10 -9 10 -21z m30 -372 c0 -18 9 -85 20 -150 11 -65 20 -120 20 -123 0 -10 -41 -3 -44 9 -9 31 -25 264 -20 284 9 32 24 18 24 -20z m-125 -147 c17 0 21 -20 16 -77 -3 -38 -6 -43 -27 -43 -19 0 -24 5 -24 25 0 13 -8 28 -17 34 -17 9 -17 11 0 39 9 17 17 43 18 59 l1 28 9 -32 c5 -18 16 -33 24 -33z"></path>
      <path id="ppbHtBmI6" d="M7745 10063 c-155 -80 -320 -217 -395 -327 -19 -28 -46 -86 -62 -130 l-28 -81 0 -564 0 -565 36 42 c131 154 401 305 725 406 119 36 372 96 497 116 l72 12 0 225 0 226 -37 -7 c-144 -23 -250 -27 -322 -12 -114 24 -193 66 -270 143 -127 128 -182 303 -150 477 5 31 9 61 7 67 -2 5 -34 -8 -73 -28z m187 -609 c23 -20 53 -41 66 -47 12 -6 22 -14 22 -19 0 -4 8 -8 18 -8 15 0 18 -6 14 -32 -5 -36 -23 -58 -45 -58 -31 0 -57 -66 -57 -146 0 -95 17 -153 48 -161 25 -6 30 -31 8 -39 -8 -3 -17 -16 -20 -28 -4 -15 -15 -25 -33 -29 -16 -3 -36 -9 -45 -12 -16 -6 -18 -1 -18 40 0 67 -13 74 -132 75 -75 0 -100 -4 -112 -16 -9 -8 -16 -19 -16 -24 0 -5 -26 6 -57 23 -46 26 -59 39 -61 60 -2 15 -8 27 -13 27 -5 0 -9 15 -9 34 0 45 -21 136 -32 136 -4 0 -8 9 -8 20 0 11 5 20 10 20 6 0 10 6 10 14 0 9 19 16 60 20 37 4 67 14 78 25 32 33 77 58 117 65 21 4 56 21 76 37 20 16 42 29 48 29 6 0 11 7 11 15 0 25 26 17 72 -21z"></path>
      <path id="p1HGFe3H4n" d="M9140 8744 c-25 -2 -108 -8 -185 -14 -268 -20 -629 -83 -720 -124 -46 -21 -150 -116 -203 -186 -30 -39 -69 -121 -87 -185 -56 -192 82 -395 269 -395 80 0 154 50 269 182 73 84 124 110 216 112 57 1 73 -3 104 -24 20 -13 41 -35 46 -48 7 -15 11 -148 11 -369 l0 -346 88 6 c48 4 192 12 320 18 475 22 1068 -33 1472 -138 74 -19 146 -37 159 -40 20 -5 10 11 -55 86 -222 260 -388 508 -536 806 -54 108 -163 381 -209 523 -38 116 -24 106 -174 122 -99 11 -698 21 -785 14z m894 -191 c22 -63 13 -65 -18 -4 -18 37 -22 51 -12 51 8 0 21 -21 30 -47z m141 -368 c19 -49 35 -98 35 -107 0 -10 9 -27 20 -38 11 -11 20 -28 20 -38 0 -10 5 -23 12 -30 9 -9 7 -12 -12 -12 -33 0 -44 9 -64 48 -9 18 -25 36 -34 39 -9 4 -32 22 -50 40 -38 38 -38 39 -46 273 l-6 135 46 -110 c25 -60 60 -150 79 -200z"></path>
      <path id="phDwYQhno" d="M7651 8380 c-155 -94 -278 -205 -334 -300 -56 -97 -57 -110 -55 -779 l3 -613 39 56 c120 174 406 343 759 450 121 37 338 87 455 106 l72 12 0 187 c0 103 -3 190 -6 193 -3 4 -56 -18 -117 -48 -210 -100 -360 -110 -512 -34 -124 63 -203 156 -251 296 -25 70 -28 94 -28 209 0 119 3 137 31 220 17 50 30 91 29 93 -2 1 -40 -21 -85 -48z m863 -896 c9 -68 7 -122 -4 -129 -6 -4 -10 15 -10 49 0 53 -1 56 -25 56 -22 0 -25 4 -25 35 0 32 3 35 29 35 26 0 29 -3 35 -46z"></path>
      <path id="pChzszBM3" d="M9150 7093 c-536 -39 -986 -138 -1285 -283 -150 -73 -224 -122 -302 -200 -81 -80 -117 -152 -121 -247 -5 -91 13 -148 77 -233 134 -183 508 -363 941 -455 328 -69 634 -99 1025 -99 382 0 646 25 963 90 559 115 955 318 1068 549 40 83 41 184 2 267 -143 306 -791 544 -1653 608 -127 9 -604 11 -715 3z"></path>
    </g>
  </g>
  <g id="l2sg3XKkT8R7yAN8rKLTcty" fill="rgb(64,122,71)" style="transform: none;">
    <g style="transform: none;">
      <path id="p7cp27sSZ" d="M7042 14908 c2 -19 10 -24 46 -26 52 -4 59 20 11 37 -48 17 -61 14 -57 -11z"></path>
      <path id="p13jLWvija" d="M7176 14883 c-16 -16 -5 -72 17 -90 13 -10 30 -40 37 -66 14 -47 43 -69 68 -53 11 7 -2 85 -19 119 -24 47 -89 104 -103 90z"></path>
      <path id="p11OoS6I2X" d="M6870 14830 c0 -15 7 -20 29 -20 16 0 43 -3 60 -6 28 -6 31 -4 31 20 0 25 -2 26 -60 26 -53 0 -60 -2 -60 -20z"></path>
      <path id="pVPQe49CT" d="M7128 14691 c3 -32 -1 -42 -22 -59 -35 -27 -108 -42 -207 -42 -94 0 -140 16 -165 59 -22 37 -30 39 -38 9 -24 -92 25 -129 172 -127 85 1 203 18 253 38 32 12 59 66 59 120 0 38 -2 41 -28 41 -26 0 -27 -2 -24 -39z"></path>
      <path id="pVRlhrln6" d="M7216 14603 c-27 -28 -36 -46 -36 -71 0 -31 2 -33 18 -21 41 31 75 66 88 91 19 36 18 38 -10 38 -14 0 -38 -15 -60 -37z"></path>
      <path id="pcnyGOClh" d="M5068 14616 c-98 -28 -182 -106 -219 -205 -26 -70 -37 -231 -20 -313 39 -184 158 -288 341 -296 183 -9 302 53 368 190 34 68 48 199 34 303 -20 151 -77 242 -188 296 -58 29 -76 33 -167 35 -65 2 -119 -1 -149 -10z m183 -123 c52 -10 112 -77 132 -149 9 -33 17 -75 17 -92 0 -26 4 -32 21 -32 21 0 22 3 16 80 -4 65 -11 91 -36 135 -37 65 -28 71 22 16 50 -56 65 -89 79 -176 27 -176 -33 -343 -143 -397 -52 -26 -139 -40 -184 -30 -38 8 -36 9 36 14 84 7 120 21 161 65 40 43 59 99 65 191 5 77 5 82 -14 82 -17 0 -21 -9 -26 -56 -8 -75 -49 -157 -92 -184 -49 -30 -124 -37 -180 -15 -81 30 -123 110 -132 245 -14 216 89 337 258 303z"></path>
      <path id="p1Ejv5M483" d="M7650 14614 c-176 -48 -269 -204 -258 -437 6 -123 31 -195 90 -262 78 -89 177 -129 305 -123 55 2 68 6 71 21 3 15 -5 17 -61 17 -196 0 -317 107 -353 311 -17 97 -9 151 32 237 33 67 50 69 38 5 -5 -27 -9 -113 -8 -193 1 -161 9 -190 65 -255 47 -53 82 -65 193 -65 89 0 96 2 142 33 46 30 49 35 52 80 3 52 -7 60 -28 21 -23 -43 -92 -76 -158 -77 -109 -1 -177 64 -202 191 -29 147 10 295 93 350 34 23 51 27 109 26 58 0 68 2 68 17 0 9 -7 20 -16 23 -24 9 -132 7 -152 -3 -9 -4 -33 -13 -52 -19 -32 -11 -33 -10 -15 4 32 24 124 47 195 48 54 1 73 -4 114 -26 27 -16 54 -28 61 -28 17 0 45 -33 45 -53 0 -9 7 -17 15 -17 9 0 15 -9 15 -24 0 -14 6 -31 14 -38 8 -9 16 -52 20 -118 12 -169 10 -212 -8 -226 -9 -6 -16 -19 -16 -28 0 -9 -4 -16 -10 -16 -5 0 -10 -7 -10 -15 0 -9 -16 -29 -35 -46 -25 -22 -35 -39 -35 -60 0 -16 5 -29 12 -29 6 0 34 24 63 53 69 69 94 137 102 273 17 296 -119 466 -371 463 -39 0 -96 -7 -126 -15z"></path>
      <path id="pd1hKMoe7" d="M3490 14575 c0 -38 11 -43 55 -23 16 7 25 19 25 35 0 20 -5 23 -40 23 -39 0 -40 -1 -40 -35z"></path>
      <path id="p1An9PLAfG" d="M3600 14368 c0 -134 -3 -333 -7 -443 -5 -168 -4 -203 9 -215 8 -8 17 -23 21 -32 4 -12 17 -18 37 -18 27 0 30 -3 30 -30 0 -32 -19 -80 -32 -80 -4 0 -8 -12 -8 -26 0 -23 3 -25 42 -22 l41 3 116 290 c64 160 139 347 166 418 27 70 52 127 56 127 4 0 23 -44 42 -97 144 -396 271 -729 281 -735 6 -4 64 -8 129 -8 l117 0 0 373 c0 204 2 448 4 542 2 93 1 175 -1 182 -4 9 -30 13 -89 13 l-84 0 0 -432 c0 -238 -4 -428 -8 -422 -5 5 -57 140 -116 299 -120 326 -158 426 -192 503 l-23 53 -67 -3 -68 -3 -38 -95 c-44 -108 -168 -426 -237 -607 -26 -67 -50 -125 -54 -129 -3 -4 -7 179 -7 406 0 226 -3 416 -6 421 -3 5 -16 9 -30 9 l-24 0 0 -242z m975 125 c-3 -259 -5 -297 -17 -285 -7 7 -14 41 -16 77 -2 36 -8 65 -13 65 -5 0 -9 43 -9 96 l0 95 28 -3 c25 -3 27 -6 27 -45z m-676 -365 c-6 -13 -17 -30 -24 -38 -7 -8 -15 -33 -18 -55 -3 -22 -14 -60 -25 -85 l-21 -45 0 33 c-1 18 6 49 14 69 8 19 15 42 15 50 0 7 5 19 10 26 6 7 19 24 31 40 25 33 34 35 18 5z m380 -131 c5 -18 16 -49 25 -69 9 -21 13 -38 8 -38 -5 0 -19 30 -33 67 -13 37 -26 71 -28 76 -2 6 1 7 7 3 6 -4 15 -21 21 -39z m291 -159 c0 -38 -3 -49 -10 -38 -13 20 -13 90 0 90 6 0 10 -24 10 -52z"></path>
      <path id="pfLkWCPRT" d="M5746 14595 c-3 -9 -6 -129 -6 -266 0 -239 1 -249 19 -249 29 0 34 39 35 260 1 188 2 195 21 195 19 0 20 -5 16 -167 -3 -176 8 -279 40 -355 18 -42 18 -42 -4 -45 -18 -2 -23 -11 -25 -45 -3 -42 -2 -43 27 -43 28 0 31 3 31 32 l0 32 53 -51 c58 -57 94 -78 151 -88 36 -7 38 -6 34 16 -3 21 -9 24 -50 27 -32 2 -48 8 -48 16 0 10 21 15 78 17 70 4 82 7 114 34 19 17 40 43 47 58 12 26 56 77 66 77 9 0 5 -49 -7 -93 -9 -35 -21 -50 -54 -73 -30 -20 -44 -36 -44 -51 0 -58 109 10 150 92 25 49 25 53 28 347 3 204 0 303 -8 317 -9 18 -20 21 -80 21 -38 0 -72 -5 -75 -11 -4 -6 -8 -133 -10 -282 -2 -221 -5 -279 -18 -309 -21 -50 -65 -71 -134 -66 -67 6 -118 43 -153 114 -24 47 -25 57 -30 299 l-5 250 -76 3 c-63 2 -78 0 -83 -13z"></path>
      <path id="pNowTU3dp" d="M6647 14545 c3 -9 -2 -23 -10 -33 -8 -9 -19 -29 -22 -44 -7 -25 -5 -28 20 -28 18 0 29 6 32 20 3 11 9 20 14 20 5 0 9 18 9 40 0 36 -3 40 -25 40 -18 0 -23 -4 -18 -15z"></path>
      <path id="p1EhIsaB99" d="M7013 14503 c-18 -7 -16 -43 2 -43 41 0 115 23 115 36 0 10 -13 14 -52 13 -29 0 -59 -3 -65 -6z"></path>
      <path id="peSKPv8Hw" d="M6768 14483 c-10 -2 -18 -9 -18 -14 0 -5 -9 -9 -20 -9 -17 0 -20 -7 -20 -50 0 -49 1 -50 30 -50 27 0 30 -3 30 -30 0 -30 0 -30 59 -30 77 0 91 6 91 39 0 27 0 27 -65 23 -63 -4 -65 -3 -75 22 -5 15 -10 31 -10 35 0 15 51 31 95 31 38 0 45 3 45 20 0 18 -6 20 -62 19 -35 -1 -71 -3 -80 -6z"></path>
      <path id="p1GuquFSJF" d="M7020 14327 c0 -29 6 -36 50 -62 27 -17 50 -34 50 -38 0 -5 9 -20 20 -34 11 -14 23 -43 26 -64 4 -23 13 -40 23 -42 13 -4 12 -5 -3 -6 -18 -1 -18 -7 -12 -93 4 -51 11 -97 16 -102 13 -13 130 -21 130 -9 0 24 -33 52 -71 58 -30 5 -39 11 -35 22 4 8 11 46 17 84 9 56 8 78 -5 121 -28 96 -71 142 -168 183 l-38 15 0 -33z"></path>
      <path id="pIbiQE3gF" d="M6880 14250 c0 -17 7 -20 48 -20 92 0 152 -59 152 -150 0 -113 -101 -189 -211 -160 -48 13 -94 59 -103 101 -6 32 -20 37 -42 15 -36 -36 2 -126 66 -158 24 -13 59 -18 112 -18 88 0 124 10 133 39 3 12 15 21 26 21 12 0 24 11 30 28 7 15 16 37 21 48 17 37 6 175 -17 206 -29 40 -95 68 -160 68 -48 0 -55 -2 -55 -20z"></path>
      <path id="pAfDqvArE" d="M6593 14060 c8 -77 26 -118 73 -170 32 -36 81 -70 99 -70 3 0 5 9 5 19 0 11 -21 41 -46 68 -51 52 -78 105 -89 171 -5 33 -11 42 -27 42 -19 0 -20 -4 -15 -60z"></path>
      <path id="phI6X6vag" d="M3490 13790 l0 -290 45 0 c41 0 45 2 45 25 0 15 -6 25 -14 25 -14 0 -17 27 -32 383 -6 135 -8 147 -25 147 -18 0 -19 -13 -19 -290z"></path>
      <path id="pLdVO5UpD" d="M7023 13854 c-20 -10 -33 -24 -33 -35 0 -23 9 -23 76 -2 43 13 58 14 79 5 14 -7 32 -12 40 -12 22 0 18 38 -4 50 -29 15 -122 12 -158 -6z"></path>
      <path id="pcp6lARwl" d="M5752 13835 c2 -15 12 -20 43 -23 63 -5 105 6 105 27 0 17 -8 19 -75 18 -70 -1 -76 -3 -73 -22z"></path>
      <path id="plOHWLBYw" d="M11621 12536 c-60 -20 -130 -70 -167 -119 -52 -68 -64 -120 -64 -272 0 -124 -2 -135 -20 -145 -32 -17 -23 -31 18 -28 l37 3 5 92 c3 54 10 97 18 105 6 6 12 20 12 29 0 10 13 24 29 32 27 14 37 12 142 -24 62 -21 116 -44 120 -50 5 -8 33 -9 94 -4 l88 7 -7 -32 c-3 -18 -6 -57 -6 -86 0 -30 -4 -54 -9 -54 -5 0 -31 -20 -56 -45 -47 -44 -47 -45 -41 -97 3 -29 8 -105 12 -168 3 -63 10 -119 15 -125 5 -5 9 -19 9 -31 0 -27 33 -106 60 -144 13 -18 20 -44 20 -73 0 -25 5 -49 10 -52 6 -3 10 -13 10 -21 0 -7 13 -42 28 -76 28 -61 29 -67 24 -188 -3 -69 -5 -165 -5 -215 1 -102 1 -102 -27 57 -24 139 -23 128 -5 128 11 0 15 12 15 45 0 39 -3 45 -20 45 -12 0 -24 9 -29 23 -12 31 -55 206 -96 392 -46 211 -60 239 -117 233 -29 -3 -33 -7 -36 -35 -3 -27 -8 -33 -26 -33 -25 0 -36 -29 -36 -91 0 -24 4 -29 24 -29 21 0 26 8 41 65 10 36 22 68 26 71 26 16 142 -440 203 -796 57 -335 70 -489 70 -865 1 -223 -4 -393 -12 -470 -36 -332 -109 -667 -194 -888 -33 -85 -58 -109 -87 -83 -27 25 -32 20 -29 -26 3 -43 3 -43 44 -46 36 -3 45 1 69 30 16 18 39 56 51 83 l24 50 0 -47 c0 -26 5 -50 10 -53 6 -3 10 -14 10 -24 0 -10 9 -26 20 -36 11 -10 20 -24 20 -30 0 -7 7 -18 15 -25 8 -7 18 -30 21 -51 4 -23 18 -48 35 -65 27 -26 29 -33 29 -103 0 -82 -12 -140 -32 -152 -10 -6 -13 -45 -13 -141 0 -117 -2 -135 -19 -150 -10 -10 -26 -20 -36 -23 -10 -3 -23 -19 -29 -35 -6 -17 -16 -44 -23 -61 -6 -17 -21 -46 -34 -64 -39 -58 -67 -310 -43 -391 16 -53 11 -50 104 -59 58 -6 67 -9 51 -19 -10 -6 -35 -26 -55 -45 -71 -66 -164 -131 -175 -123 -98 75 -220 152 -240 152 -20 0 -26 5 -26 23 0 13 -5 28 -12 35 -13 13 -88 17 -88 5 2 -25 348 -273 381 -273 40 0 331 240 520 429 167 168 283 306 398 475 314 464 482 902 568 1481 22 152 26 704 5 855 -82 598 -245 1020 -537 1395 -69 88 -244 262 -319 315 l-48 35 73 6 c108 10 201 34 295 78 157 74 260 163 354 307 75 115 76 136 10 182 -56 38 -79 31 -125 -41 -112 -174 -303 -323 -495 -386 -72 -24 -238 -28 -325 -7 l-50 11 -5 160 c-5 148 -8 164 -32 210 -57 110 -157 175 -277 181 -40 2 -84 -2 -110 -10z m1240 -1467 c3 -13 21 -55 40 -94 19 -38 35 -73 37 -77 8 -17 -35 -6 -60 15 -31 27 -62 122 -52 161 8 32 25 29 35 -5z m-509 -3509 l40 0 -31 -37 c-17 -21 -52 -62 -78 -91 l-48 -53 3 58 c3 45 0 62 -12 72 -20 17 -20 31 -1 31 9 0 18 7 22 16 4 12 14 14 36 10 16 -3 47 -6 69 -6z"></path>
      <path id="p173hSG7eW" d="M10962 11742 c-42 -35 -41 -52 3 -52 34 0 35 1 35 40 0 22 -1 40 -2 40 -2 0 -18 -13 -36 -28z"></path>
      <path id="pIj1WKXbv" d="M10818 11600 c-27 -30 -48 -58 -48 -62 0 -5 16 -8 35 -8 20 0 35 5 35 12 0 6 7 19 16 29 9 10 14 30 12 50 l-3 33 -47 -54z"></path>
      <path id="p10TiHniW1" d="M11420 10415 c0 -28 4 -35 20 -35 13 0 20 7 20 19 0 11 3 26 6 35 5 12 0 16 -20 16 -23 0 -26 -4 -26 -35z"></path>
      <path id="pVXLHkwnF" d="M11400 10050 c0 -33 4 -40 19 -40 15 0 20 9 23 40 3 36 1 40 -19 40 -20 0 -23 -5 -23 -40z"></path>
      <path id="pkVotT1mi" d="M11520 8905 c0 -31 3 -35 26 -35 22 0 25 3 20 23 -3 12 -6 28 -6 35 0 6 -9 12 -20 12 -16 0 -20 -7 -20 -35z"></path>
      <path id="plLpzFJ42" d="M11573 8735 c-7 -8 -13 -28 -13 -45 0 -28 3 -30 36 -30 29 0 34 3 30 18 -3 9 -8 29 -12 45 -7 30 -22 34 -41 12z"></path>
      <path id="pXBOq5WdR" d="M10670 7973 c0 -20 171 -276 272 -407 64 -83 78 -91 78 -42 0 29 -4 36 -20 36 -15 0 -20 7 -20 25 0 16 -6 25 -15 25 -8 0 -15 7 -15 15 0 22 -30 65 -45 65 -7 0 -16 11 -19 24 -5 20 -86 151 -151 244 -14 20 -65 32 -65 15z"></path>
    </g>
  </g>
  <g id="l12OAIgcjrLU4VyttLdew7X" fill="rgb(73,140,79)" style="transform: none;">
    <g style="transform: none;">
      <path id="pJjaryydk" d="M6721 14924 c-102 -27 -150 -71 -172 -157 -15 -61 5 -119 67 -188 40 -46 58 -79 34 -64 -5 3 -10 -3 -10 -15 0 -11 -7 -23 -15 -26 -9 -4 -15 -19 -15 -40 0 -26 10 -45 41 -79 l41 -44 -36 -47 c-54 -70 -70 -135 -53 -210 11 -50 17 -60 37 -62 27 -4 60 -37 60 -59 0 -8 9 -33 19 -56 21 -44 59 -68 134 -82 36 -7 37 -6 37 23 0 29 1 29 45 24 45 -5 45 -4 45 26 0 17 -4 34 -10 37 -5 3 -10 3 -10 -2 0 -7 -67 -9 -122 -4 -9 0 -31 13 -48 27 -24 20 -28 29 -18 35 10 7 8 9 -5 9 -10 0 -16 4 -13 9 4 5 0 12 -6 14 -10 4 -10 6 0 6 8 1 12 20 12 62 0 108 43 161 142 173 46 6 64 3 102 -15 25 -11 46 -25 46 -30 0 -5 14 -9 30 -9 20 0 30 -5 30 -15 0 -11 12 -15 44 -15 40 0 44 2 44 25 0 14 -6 25 -12 25 -6 0 -4 5 4 10 13 8 13 10 -1 10 -9 0 -22 7 -29 15 -9 10 -9 15 -1 15 6 0 11 7 11 15 0 9 -6 12 -15 9 -17 -7 -105 45 -105 62 0 7 -10 14 -22 18 -35 9 -138 7 -138 -3 0 -5 -7 -11 -15 -15 -19 -7 -95 32 -95 49 0 8 -8 11 -19 8 -15 -4 -20 0 -18 16 1 15 8 21 25 21 13 0 21 4 18 9 -7 11 30 20 73 16 29 -3 74 1 229 20 48 6 134 43 127 55 -5 9 23 34 49 44 10 3 16 9 12 13 -3 3 0 13 8 22 7 9 16 31 18 49 4 25 0 37 -16 49 -14 10 -17 17 -8 20 18 7 15 23 -5 23 -15 0 -16 2 -3 10 12 8 12 10 -5 10 -15 0 -17 2 -6 9 15 10 7 31 -13 31 -19 0 -42 30 -38 50 3 18 -53 49 -98 54 -14 1 -38 8 -53 14 -40 17 -269 14 -336 -4z m235 -113 c-3 -5 15 -11 39 -14 61 -6 124 -49 132 -88 4 -23 8 -27 15 -17 17 23 -2 -42 -19 -69 -9 -13 -22 -22 -29 -19 -8 3 -14 1 -14 -5 0 -6 -7 -9 -15 -5 -8 3 -15 0 -15 -6 0 -6 -11 -8 -29 -5 -16 4 -31 2 -33 -3 -6 -16 -175 -20 -212 -5 -39 17 -63 41 -45 47 8 3 7 13 -5 35 -9 18 -16 42 -16 53 0 27 49 77 81 84 13 2 44 9 69 14 59 13 102 14 96 3z"></path>
      <path id="pntOZhNMD" d="M7883 14555 c-36 -15 -58 -65 -32 -74 8 -2 30 -20 50 -40 35 -35 69 -115 69 -163 0 -10 4 -18 8 -18 14 0 -7 -151 -30 -220 -12 -36 -30 -74 -41 -85 -18 -18 -19 -18 -14 -2 4 11 3 16 -3 12 -6 -3 -10 -12 -10 -20 0 -8 -5 -17 -12 -21 -7 -5 -9 -2 -5 9 4 11 2 14 -8 11 -8 -3 -12 -11 -9 -19 8 -20 -24 -27 -35 -7 -9 16 -10 16 -16 0 -5 -13 -18 -18 -46 -18 -39 0 -39 0 -39 -40 0 -51 23 -64 110 -64 50 0 80 7 127 29 35 15 61 31 58 35 -5 9 44 55 68 63 19 7 23 27 5 27 -6 0 -4 6 7 13 10 8 15 19 12 24 -4 6 0 13 8 17 8 3 15 17 15 31 0 15 4 24 9 21 5 -3 8 12 7 34 0 22 -4 40 -8 40 -5 0 -8 22 -8 49 0 31 -6 55 -15 65 -17 17 -21 101 -5 111 13 8 13 45 -1 45 -5 0 -7 5 -4 10 3 6 2 10 -3 10 -6 0 -8 9 -5 21 4 15 0 22 -16 26 -11 3 -18 10 -15 15 8 13 -35 58 -55 58 -9 0 -25 7 -35 15 -24 18 -42 18 -83 0z"></path>
      <path id="p17JDdH6wl" d="M5757 13953 c-12 -12 -8 -120 6 -130 6 -6 32 -8 57 -6 25 2 53 5 63 6 24 2 25 87 1 87 -10 0 -14 6 -10 15 3 8 -3 19 -14 25 -21 11 -93 14 -103 3z"></path>
      <path id="p10iYFsLN2" d="M6170 13924 c-16 -9 -53 -12 -101 -10 -42 2 -82 0 -89 -4 -33 -21 39 -90 93 -90 14 0 29 -4 32 -10 7 -11 105 -11 150 0 17 4 26 8 21 9 -4 0 2 10 15 20 22 17 22 21 10 45 -10 19 -22 26 -43 26 -15 0 -28 4 -28 9 0 15 -34 18 -60 5z"></path>
      <path id="pvX9CckN" d="M7140 13921 c-5 -11 -10 -33 -10 -49 0 -42 38 -64 122 -70 l68 -5 0 44 c0 56 -7 64 -54 65 -24 1 -44 8 -51 18 -17 22 -62 20 -75 -3z"></path>
      <path id="p1F6Txt91X" d="M11275 11952 c-138 -71 -282 -172 -301 -210 -7 -13 -14 -18 -16 -12 -2 6 -37 -24 -79 -68 -41 -43 -73 -85 -71 -92 3 -7 0 -10 -6 -6 -19 12 -133 -136 -235 -305 -345 -570 -466 -1324 -333 -2084 35 -198 122 -505 201 -711 79 -203 205 -458 262 -529 40 -50 129 -188 157 -243 14 -28 35 -56 46 -62 11 -6 18 -15 16 -19 -16 -25 389 -471 451 -497 17 -8 35 -19 39 -25 5 -8 2 -10 -7 -4 -8 4 0 -4 16 -19 17 -14 34 -25 38 -26 5 0 22 -9 38 -21 l29 -20 0 28 c0 15 5 44 11 63 7 19 15 76 20 125 4 50 12 126 18 170 6 44 15 123 20 175 6 52 17 118 26 145 10 36 15 95 15 212 0 140 3 174 25 254 13 50 36 113 50 140 19 37 25 64 25 113 0 55 -3 64 -17 62 -10 0 -18 6 -19 14 0 8 -7 29 -16 45 -8 17 -23 54 -33 84 -12 36 -24 55 -37 59 -15 3 -16 7 -7 13 10 6 8 27 -11 101 -13 51 -26 95 -29 98 -3 3 -7 14 -7 25 -1 11 -11 67 -23 125 -30 149 -58 353 -71 510 -16 203 -27 493 -19 510 4 8 9 89 12 180 3 91 8 172 11 180 2 8 10 67 16 130 24 240 87 580 151 806 24 88 29 119 24 173 -5 57 -14 85 -57 173 -4 10 -8 23 -8 29 0 7 -16 45 -35 85 -26 54 -41 73 -57 76 -20 3 -22 8 -20 43 3 49 -6 63 -43 70 -23 4 -60 -11 -160 -63z"></path>
      <path id="p1AKA7MC3S" d="M11670 6905 c0 -16 30 -35 54 -35 10 0 16 9 16 25 0 22 -4 25 -35 25 -24 0 -35 -5 -35 -15z"></path>
    </g>
  </g>
  <g id="l4s7UTuEuhBHoFmjuWleEVQ" fill="rgb(59,70,79)" style="transform: none;">
    <g style="transform: none;">
      <path id="p1GO7eOQO9" d="M11811 14919 c17 -10 9 -18 -23 -21 -23 -2 -25 -4 -16 -30 6 -15 14 -31 19 -34 5 -3 7 -10 4 -15 -4 -5 -1 -9 5 -9 6 0 9 -4 6 -9 -4 -5 -3 -11 1 -13 14 -6 43 -79 37 -90 -4 -6 -2 -8 3 -5 14 9 37 -48 29 -68 -3 -9 -2 -13 4 -10 23 14 4 -48 -79 -265 -132 -348 -176 -479 -162 -493 4 -4 27 -7 51 -5 l42 3 34 95 c59 171 67 194 102 285 55 147 64 165 83 165 22 0 53 -55 44 -78 -3 -9 -3 -13 1 -9 7 7 34 -37 34 -55 0 -6 6 -24 14 -41 8 -18 23 -59 34 -92 11 -33 33 -99 51 -147 17 -49 31 -97 31 -108 0 -17 7 -20 51 -20 52 0 79 15 79 45 0 8 -10 19 -22 24 -17 6 -18 9 -5 14 21 8 10 47 -14 47 -10 0 -21 5 -24 10 -3 6 1 10 9 10 9 0 16 8 15 18 0 10 -3 12 -6 5 -9 -24 -30 -13 -40 22 -9 29 -9 35 3 35 8 0 14 6 14 14 0 9 -7 12 -19 9 -24 -6 -41 35 -20 48 11 7 10 9 -3 9 -10 0 -18 3 -18 6 0 4 8 13 18 20 16 12 15 13 -5 14 -12 0 -25 5 -28 10 -3 6 1 10 9 10 25 0 19 38 -6 42 -24 3 -47 55 -148 333 -28 77 -64 176 -81 219 -23 61 -27 81 -17 87 21 13 -1 24 -54 25 -31 1 -45 -1 -37 -7z"></path>
      <path id="pOTkyD0k6" d="M9238 14804 c17 -8 5 -24 -19 -24 -10 0 -19 -4 -19 -9 0 -5 -21 -12 -47 -16 -77 -11 -150 -103 -93 -118 10 -3 24 1 30 8 6 7 20 11 31 8 11 -3 19 -2 18 3 -6 34 31 60 104 72 40 7 42 9 42 42 0 32 -3 35 -30 37 -16 1 -24 0 -17 -3z"></path>
      <path id="puwgJqMO9" d="M13877 14548 c4 -47 2 -68 -6 -68 -6 0 -11 6 -11 14 0 8 -4 18 -10 21 -6 4 -6 -3 0 -21 17 -45 2 -41 -52 14 -58 59 -116 82 -204 82 -46 0 -58 -4 -96 -37 -70 -60 -88 -95 -99 -192 -12 -103 -15 -476 -5 -510 8 -22 12 -23 55 -16 25 3 55 7 66 8 25 2 36 57 11 57 -11 0 -16 9 -16 30 0 20 5 30 15 30 11 0 15 12 15 50 0 38 -4 50 -15 50 -23 0 -20 67 3 73 16 4 16 5 0 6 -16 1 -18 14 -18 115 0 109 1 114 23 121 19 6 19 8 5 12 -10 2 -18 11 -18 20 0 10 6 14 20 10 13 -3 20 0 20 8 0 8 7 21 16 29 8 9 12 16 8 16 -3 0 -1 7 6 15 29 35 171 12 231 -37 29 -24 52 -115 46 -182 -3 -37 -2 -51 3 -36 5 15 8 -52 9 -162 1 -115 -3 -189 -9 -193 -25 -16 -5 -25 55 -25 l65 0 -2 363 -3 362 -52 3 c-38 2 -53 7 -57 20 -2 9 -2 -13 1 -50z"></path>
      <path id="paR7Swn4H" d="M14347 14596 c-4 -10 -23 -16 -54 -18 l-48 -3 -3 -362 -2 -363 55 0 55 0 0 94 c0 85 2 94 20 99 17 4 20 14 20 61 0 49 -2 56 -20 56 -18 0 -20 6 -18 57 2 44 6 57 20 61 17 4 18 17 16 166 -3 139 -5 161 -19 164 -9 2 -19 -4 -22 -12z"></path>
      <path id="pFh7elmqQ" d="M15146 14594 c-11 -8 -27 -14 -35 -14 -23 -1 -92 -70 -120 -119 -26 -47 -50 -129 -52 -176 -1 -29 -1 -29 -9 -5 -4 16 -7 0 -6 -47 0 -41 4 -69 10 -66 5 4 7 -13 4 -41 -3 -26 -3 -45 0 -42 8 8 41 -97 35 -108 -4 -5 -1 -6 7 -1 10 6 12 4 6 -11 -4 -10 -4 -15 0 -12 4 4 19 -10 35 -32 15 -21 50 -51 76 -67 44 -25 57 -28 145 -28 l97 0 49 48 c73 72 86 65 90 -51 1 -51 -1 -92 -6 -92 -9 0 -9 -44 2 -185 4 -49 3 -62 -4 -45 l-9 25 2 -25 c2 -23 6 -25 59 -28 49 -3 57 0 63 18 3 11 11 20 16 20 5 0 9 52 9 120 0 73 -4 120 -10 120 -15 0 -12 57 3 63 10 4 10 6 0 6 -16 1 -17 28 -2 33 7 2 13 17 14 33 1 17 5 40 9 52 5 15 1 28 -13 42 -20 20 -20 20 2 24 21 4 21 4 -1 6 -22 1 -23 2 -6 19 16 16 16 17 1 20 -20 4 -23 47 -4 56 10 5 10 7 0 12 -7 3 -13 19 -13 35 0 16 5 29 13 29 8 0 7 4 -3 10 -13 9 -13 11 0 20 10 6 11 10 3 10 -9 0 -13 22 -13 75 0 43 4 75 10 75 6 0 10 17 10 38 0 28 3 33 10 22 7 -10 10 11 8 73 -2 48 -4 84 -6 79 -1 -5 -32 -7 -67 -4 -57 4 -65 3 -65 -12 0 -10 -4 -15 -8 -12 -5 3 -9 -1 -9 -9 0 -8 5 -12 10 -8 5 3 1 -6 -8 -21 -10 -14 -21 -26 -26 -26 -4 0 -13 -9 -19 -20 -8 -15 -6 -29 10 -60 13 -25 19 -50 15 -63 -4 -13 -3 -17 2 -10 4 6 8 -57 7 -140 -1 -120 -4 -159 -17 -184 -19 -36 -45 -58 -33 -27 9 24 -3 11 -18 -18 -38 -76 -152 -89 -240 -29 -34 24 -46 38 -43 51 3 12 -2 21 -17 25 -18 6 -19 8 -3 12 23 6 22 23 -2 23 -12 0 -20 9 -23 25 -3 14 -1 25 5 25 6 0 3 6 -8 13 -16 13 -17 24 -12 118 6 111 22 169 47 170 10 0 11 2 3 6 -17 6 31 55 82 81 22 12 59 26 83 32 23 6 42 16 42 23 0 21 -55 47 -98 47 -22 0 -42 4 -44 9 -1 5 -12 3 -22 -5z m471 -106 c-2 -13 -4 -5 -4 17 -1 22 1 32 4 23 2 -10 2 -28 0 -40z"></path>
      <path id="pTl3ZrHf3" d="M16650 14600 c0 -13 35 -18 47 -5 8 9 4 12 -18 13 -16 0 -29 -3 -29 -8z"></path>
      <path id="poOxZcaef" d="M8675 14589 c-27 -5 -55 -7 -62 -4 -6 2 -13 1 -15 -3 -2 -5 -20 -18 -40 -31 -27 -16 -38 -19 -39 -9 0 7 -4 3 -9 -10 -6 -14 -17 -22 -27 -20 -10 2 -18 -3 -18 -12 0 -8 -6 -15 -14 -15 -8 0 -16 -11 -18 -25 -2 -13 -10 -28 -18 -33 -8 -4 -15 -14 -15 -22 0 -24 -23 -66 -34 -62 -6 3 -11 -9 -12 -27 -1 -43 -30 -143 -36 -125 -5 15 -10 -82 -7 -141 1 -19 2 -54 3 -77 0 -24 3 -43 7 -43 4 0 14 -30 23 -67 10 -38 28 -89 41 -114 13 -26 22 -49 19 -53 -2 -3 -1 -4 3 -1 6 5 39 -36 36 -45 -3 -9 29 -40 37 -35 4 2 24 -11 44 -30 20 -18 40 -34 44 -34 19 -2 42 -13 42 -20 0 -3 8 -7 18 -8 9 0 44 -6 77 -13 70 -14 173 -7 255 18 56 16 144 76 190 128 25 28 80 135 94 182 4 12 11 22 15 22 5 0 7 73 6 163 -2 154 -3 166 -32 243 -17 44 -38 94 -46 110 -19 38 -106 133 -107 118 0 -6 -10 -9 -23 -7 -14 3 -31 -2 -40 -11 -18 -18 -13 -29 58 -129 40 -57 52 -93 65 -202 27 -219 -58 -433 -199 -505 -93 -47 -214 -46 -297 1 -46 27 -124 99 -124 115 0 6 -7 17 -14 24 -8 6 -23 32 -32 57 -15 38 -15 46 -3 54 11 7 11 9 -3 9 -10 0 -18 6 -18 13 -1 6 -3 37 -6 69 -17 170 56 396 131 410 11 2 21 9 21 16 1 6 2 17 3 22 0 6 6 10 12 10 6 0 17 7 25 15 9 8 24 15 34 15 10 0 21 4 24 9 4 5 24 12 46 16 36 6 40 10 40 36 0 16 5 29 10 29 6 0 10 9 10 20 0 17 -6 20 -37 19 -21 -1 -60 -5 -88 -10z"></path>
      <path id="p1686ZGzA" d="M10550 14586 c-75 -14 -114 -33 -151 -73 -52 -55 -76 -108 -94 -200 -15 -79 -16 -105 -7 -179 7 -48 22 -110 36 -139 13 -30 21 -57 18 -62 -4 -4 -3 -5 2 -1 5 4 22 -10 39 -33 16 -22 32 -38 34 -35 3 3 24 -5 47 -17 34 -17 58 -21 141 -22 87 0 106 3 148 24 53 28 82 61 118 138 15 33 30 52 42 53 21 0 23 20 2 20 -10 0 -15 11 -15 35 0 28 4 35 20 35 17 0 20 7 20 39 0 32 -4 40 -22 45 -13 3 -129 6 -259 6 -169 0 -238 3 -247 12 -15 15 -16 78 -1 78 5 0 7 5 4 10 -3 6 -1 10 6 10 6 0 9 8 6 20 -3 11 -1 20 5 20 5 0 6 5 3 10 -3 6 -1 10 4 10 6 0 10 5 9 12 -2 6 8 17 22 25 14 7 24 17 23 22 -4 14 45 46 91 61 55 18 159 7 236 -24 35 -14 69 -26 77 -26 16 0 19 95 3 105 -6 3 -7 -1 -4 -9 8 -20 8 -20 -78 8 -91 30 -194 38 -278 22z m230 -439 c22 -12 25 -19 23 -67 -5 -104 -61 -172 -155 -185 -58 -9 -108 7 -154 48 -36 30 -70 85 -60 94 3 3 -1 12 -9 20 -8 8 -15 28 -15 45 0 25 3 29 20 25 13 -3 20 0 20 8 0 8 -8 16 -17 18 -10 3 59 5 152 6 121 0 177 -3 195 -12z"></path>
      <path id="pvGgaK7um" d="M9625 14578 c-55 -19 -92 -55 -109 -105 -17 -49 -21 -93 -8 -93 4 0 18 -17 32 -38 13 -20 33 -48 45 -62 l20 -25 1 75 c1 84 18 127 61 158 39 27 85 33 144 21 53 -11 113 -54 102 -71 -3 -6 -2 -8 4 -5 5 3 21 -13 34 -36 23 -40 24 -51 26 -237 1 -114 -2 -180 -6 -160 l-8 35 -2 -32 c0 -17 4 -35 10 -38 6 -4 10 -26 9 -49 -3 -62 -1 -66 18 -66 12 0 14 -3 4 -8 -7 -5 17 -9 55 -9 38 0 60 1 51 4 -17 4 -18 28 -18 329 0 209 4 324 10 324 6 0 10 11 10 25 0 14 -4 25 -10 25 -5 0 -10 9 -10 21 0 18 -5 20 -52 17 -52 -3 -53 -4 -59 -38 -4 -19 -7 -31 -8 -26 0 4 -12 1 -26 -8 -25 -17 -26 -16 -65 23 -22 22 -57 45 -77 50 -47 14 -138 13 -178 -1z"></path>
      <path id="po0N9KdFV" d="M16155 14581 c30 -13 -66 -26 -102 -13 -29 10 -71 -6 -111 -41 -9 -8 -26 -17 -38 -21 -11 -3 -27 -17 -34 -31 -10 -19 -16 -22 -27 -13 -10 8 -12 8 -8 -4 4 -9 -4 -46 -17 -84 -41 -124 -29 -269 35 -434 1 -2 22 -22 47 -45 25 -22 48 -44 52 -50 4 -5 8 -7 8 -3 0 4 17 -1 38 -12 26 -14 57 -20 93 -20 30 1 69 1 88 0 19 0 32 3 28 7 -4 3 15 14 43 24 49 17 99 63 130 118 8 15 15 55 15 96 1 39 5 89 9 112 l8 42 -36 6 c-36 7 -347 2 -376 -6 -8 -2 -21 -11 -28 -19 -10 -11 -12 -11 -6 -1 5 10 3 12 -5 7 -9 -6 -9 -11 0 -22 9 -11 45 -14 168 -14 109 0 161 -4 169 -12 17 -17 15 -77 -3 -129 -16 -45 -76 -108 -104 -110 -9 0 -43 -2 -76 -5 -102 -6 -142 29 -226 194 -19 38 -20 45 -6 60 8 9 17 46 21 82 14 131 43 188 121 238 34 22 54 27 133 30 59 3 92 1 92 -6 0 -6 9 -8 19 -5 10 3 41 -5 67 -17 30 -13 50 -17 52 -10 2 5 10 10 18 10 9 0 14 11 14 31 0 18 -4 28 -10 24 -6 -4 -35 6 -64 20 -40 19 -75 28 -133 31 -50 3 -71 1 -58 -5z"></path>
      <path id="pGRZ1bARa" d="M11137 14573 c-4 -3 -8 -106 -9 -227 -1 -150 -4 -202 -9 -161 -4 36 -5 12 -2 -60 8 -170 9 -247 3 -270 -4 -18 1 -20 48 -23 31 -2 52 1 52 7 0 6 7 11 16 11 9 0 12 -5 8 -12 -4 -7 -4 -10 1 -6 4 4 9 31 10 60 2 29 1 43 -2 31 -5 -28 -33 -31 -33 -4 0 34 41 34 77 -1 18 -17 29 -36 26 -41 -3 -6 -2 -7 4 -4 10 6 66 -26 59 -34 -8 -7 96 -10 135 -4 36 6 38 9 37 39 -1 27 -5 32 -20 28 -10 -2 -18 1 -18 7 0 6 8 11 18 12 42 2 -47 18 -99 18 -52 -1 -64 3 -100 32 -30 24 -37 34 -27 40 9 6 7 9 -9 9 -16 0 -28 14 -50 58 l-28 57 8 199 c5 109 6 209 3 222 -6 21 -12 24 -50 24 -23 0 -46 -3 -49 -7z"></path>
      <path id="pP0YWoDcP" d="M12468 14568 c-16 -12 -18 -55 -23 -515 -4 -277 -3 -513 0 -524 7 -21 10 -21 134 -14 140 8 211 8 256 0 25 -4 27 -4 10 5 -15 8 -2 9 50 5 48 -4 65 -2 55 5 -12 8 -11 10 7 10 13 0 37 9 55 20 18 11 42 20 53 20 15 0 17 2 7 9 -10 6 -5 12 20 20 26 9 30 14 18 21 -13 8 -13 10 2 10 9 0 20 4 23 10 3 6 -1 7 -9 4 -20 -8 -21 10 -1 29 8 8 11 18 7 21 -3 4 -1 10 5 14 8 5 9 21 2 56 -7 37 -6 52 3 58 10 6 10 10 -1 17 -11 7 -11 9 0 14 10 4 10 6 -2 6 -9 1 -22 16 -30 34 -7 17 -31 49 -53 70 -33 31 -38 40 -26 48 13 8 13 10 0 19 -13 8 -12 11 5 24 11 9 23 16 27 16 17 0 98 76 91 84 -4 3 -1 6 6 6 7 0 9 5 6 10 -3 6 -1 10 5 10 7 0 9 8 5 20 -4 13 -2 20 7 20 8 0 9 3 3 8 -5 4 -10 32 -11 63 0 67 -22 139 -41 139 -7 0 -13 5 -13 10 0 6 -6 10 -13 10 -25 0 -66 25 -78 48 -10 17 -21 22 -51 22 -21 0 -38 5 -38 10 0 6 -8 10 -17 10 -15 0 -16 2 -3 10 10 7 -20 10 -95 10 -60 0 -162 3 -225 6 -88 4 -119 3 -132 -8z m445 -87 c21 -5 55 -21 76 -35 20 -14 44 -26 53 -26 19 0 32 -79 22 -142 -8 -49 -46 -127 -74 -153 -11 -10 -20 -24 -20 -30 0 -20 -30 -41 -39 -27 -4 8 -54 14 -137 18 -128 7 -171 9 -188 12 -5 1 -3 8 3 16 10 12 8 13 -8 9 -20 -5 -21 -2 -21 136 0 87 4 141 10 141 6 0 10 7 10 15 0 8 -4 15 -10 15 -14 0 -13 33 2 48 14 14 262 16 321 3z m-6 -495 c6 -6 25 -21 41 -34 40 -31 70 -122 53 -167 -6 -17 -11 -39 -11 -49 0 -9 -5 -14 -10 -11 -6 3 -13 -1 -16 -9 -3 -9 -22 -26 -42 -38 -21 -12 -41 -27 -45 -32 -6 -8 -10 -7 -14 2 -7 17 -23 15 -23 -2 0 -19 -62 -28 -160 -24 -53 2 -74 7 -72 16 1 6 -5 12 -13 12 -13 0 -15 25 -15 169 0 196 -12 179 123 183 48 1 92 5 98 9 13 8 89 -10 106 -25z"></path>
      <path id="pIINzvlYI" d="M14617 14573 c-13 -13 -6 -227 8 -268 20 -54 20 -224 0 -271 -20 -47 -24 -517 -4 -540 8 -10 26 -14 53 -12 l41 3 3 469 c2 360 5 472 15 479 9 7 9 10 0 14 -7 2 -13 15 -13 28 0 13 6 26 13 28 10 4 10 6 0 6 -8 1 -13 15 -13 36 l0 35 -48 0 c-27 0 -52 -3 -55 -7z"></path>
      <path id="pBmPm8s7v" d="M16615 14468 c-4 -57 -5 -220 -3 -363 l3 -259 33 -7 c60 -12 72 -3 72 55 0 48 2 52 24 51 29 -2 56 -22 56 -41 0 -8 5 -14 11 -14 7 0 24 -13 39 -28 24 -26 35 -29 99 -31 70 -2 71 -2 71 23 0 14 -4 26 -10 26 -5 0 -10 12 -10 28 0 36 -31 64 -48 45 -31 -33 -119 2 -161 63 -21 30 -22 37 -10 45 11 7 9 9 -7 9 -12 0 -26 8 -30 18 -5 9 -11 121 -14 247 l-5 230 -52 3 -51 3 -7 -103z"></path>
      <path id="ptcyHbF2V" d="M8813 14545 c-18 -20 -16 -25 7 -25 13 0 20 7 20 20 0 23 -10 25 -27 5z"></path>
      <path id="pBN5tGn5y" d="M8943 14545 c-17 -19 -16 -25 2 -25 8 0 15 9 15 20 0 23 -1 24 -17 5z"></path>
      <path id="pxP43pPju" d="M9546 14220 c-5 -25 -18 -63 -29 -85 -17 -32 -22 -63 -25 -158 -5 -136 0 -147 62 -146 35 1 37 2 16 9 -24 8 -23 8 8 9 23 1 31 -3 26 -11 -5 -8 -2 -9 10 -5 10 4 20 7 22 7 2 0 4 54 4 120 0 100 -2 120 -15 120 -12 0 -15 16 -16 78 -1 48 -4 66 -8 47 l-6 -29 -16 25 c-9 14 -19 34 -21 44 -3 12 -7 3 -12 -25z"></path>
      <path id="pKsd4tBFo" d="M8450 14080 c0 -5 7 -10 15 -10 8 0 15 5 15 10 0 6 -7 10 -15 10 -8 0 -15 -4 -15 -10z"></path>
      <path id="pmykhKxHF" d="M8463 14035 c-17 -19 -16 -35 2 -35 9 0 15 9 15 25 0 29 -1 29 -17 10z"></path>
      <path id="pQR28X5wv" d="M11410 13960 c0 -5 6 -10 14 -10 8 0 18 5 21 10 3 6 -3 10 -14 10 -12 0 -21 -4 -21 -10z"></path>
      <path id="p4sSTaHNc" d="M12203 13833 c9 -2 25 -2 35 0 9 3 1 5 -18 5 -19 0 -27 -2 -17 -5z"></path>
      <path id="p17jXgcCFb" d="M15624 13635 c0 -49 1 -71 3 -48 2 23 2 64 0 90 -2 26 -3 8 -3 -42z"></path>
      <path id="p99viCurq" d="M8760 13625 c0 -13 4 -14 20 -5 11 6 20 13 20 15 0 3 -9 5 -20 5 -11 0 -20 -7 -20 -15z"></path>
      <path id="puuWCbni8" d="M14240 13618 c-21 -23 -28 -82 -10 -93 6 -4 7 -11 4 -17 -4 -7 -2 -8 4 -4 7 4 12 2 12 -4 0 -6 5 -8 10 -5 6 3 10 1 10 -4 0 -6 18 -11 41 -11 28 0 38 4 33 12 -5 8 -2 9 9 5 9 -3 19 -2 22 3 4 6 2 10 -3 10 -6 0 -8 17 -5 39 5 34 2 43 -22 65 -35 32 -77 34 -105 4z"></path>
      <path id="pUBY0bdyf" d="M14730 13480 c0 -5 7 -10 15 -10 8 0 15 5 15 10 0 6 -7 10 -15 10 -8 0 -15 -4 -15 -10z"></path>
      <path id="plCVthIJk" d="M9397 11945 c-24 -17 -21 -37 13 -92 25 -40 30 -60 32 -121 l2 -72 36 0 35 0 -4 46 c-2 26 2 63 7 83 6 20 13 47 16 61 4 17 18 32 41 43 39 19 110 23 120 7 8 -12 225 -2 239 11 15 14 36 11 36 -5 0 -8 7 -17 16 -20 28 -11 54 -6 54 9 0 8 7 15 15 15 8 0 15 -6 15 -14 0 -7 10 -16 23 -19 12 -3 39 -12 60 -19 28 -11 52 -12 95 -6 89 14 115 17 150 17 63 2 31 19 -45 25 -43 4 -107 11 -143 17 -102 16 -285 27 -288 18 -5 -13 -60 -11 -64 2 -2 7 -42 14 -101 17 -87 4 -97 3 -91 -12 5 -13 -1 -16 -40 -16 -34 0 -46 4 -46 15 0 11 -13 15 -52 16 -29 0 -67 2 -84 3 -17 2 -38 -2 -47 -9z"></path>
      <path id="ps27fTcyu" d="M8005 11744 c-55 -19 -118 -41 -141 -49 -72 -26 -134 -65 -134 -86 0 -16 5 -18 44 -13 27 4 46 2 50 -5 4 -6 18 -11 31 -11 13 0 30 -9 37 -19 8 -11 30 -22 49 -26 44 -8 50 -13 69 -50 14 -27 20 -30 65 -30 49 0 50 0 48 30 -7 98 -7 109 5 113 14 4 16 42 2 42 -5 0 -10 14 -10 30 0 23 4 30 20 30 11 0 20 -4 20 -10 0 -5 9 -10 20 -10 11 0 20 5 20 10 0 6 -4 10 -10 10 -5 0 -10 9 -10 20 0 11 -6 20 -13 20 -7 0 -23 9 -35 20 -12 11 -22 20 -24 20 -2 0 -48 -16 -103 -36z"></path>
      <path id="pMwEj9scd" d="M9271 11608 c-14 -22 -14 -28 0 -28 5 0 7 5 3 12 -5 7 -2 9 7 6 8 -3 26 0 38 7 l24 12 -30 5 c-22 3 -34 -1 -42 -14z"></path>
      <path id="p13spZOaNw" d="M9480 11620 c8 -5 31 -9 50 -9 32 1 33 2 10 9 -14 4 -36 8 -50 9 -20 1 -22 -1 -10 -9z"></path>
      <path id="p9aXkhY6A" d="M9130 11565 c-111 -16 -190 -40 -190 -57 0 -5 -6 -8 -13 -8 -14 0 -127 -105 -127 -119 0 -5 -24 -28 -52 -50 -29 -22 -69 -55 -89 -73 -20 -18 -55 -48 -77 -66 -35 -30 -40 -40 -46 -92 -4 -32 -13 -64 -21 -70 -20 -16 -19 -32 3 -56 35 -40 60 -100 65 -164 5 -58 3 -68 -19 -97 -20 -27 -22 -33 -9 -33 35 0 9 -33 -38 -48 -76 -24 -47 -25 68 -3 59 12 108 21 110 21 10 0 65 63 65 75 0 8 6 36 13 62 10 37 10 47 0 50 -14 5 -18 33 -4 33 4 0 11 46 15 103 6 101 29 185 70 265 9 18 13 32 9 32 -5 0 0 5 9 11 10 5 15 16 11 25 -3 8 -2 14 3 13 21 -4 30 3 42 31 8 17 21 30 32 30 9 0 23 7 30 15 9 10 9 15 1 15 -6 0 -11 11 -11 25 0 21 5 25 27 25 16 0 36 10 48 24 11 13 32 26 45 28 14 2 24 9 23 15 -2 7 3 10 11 7 7 -3 20 1 27 8 8 7 19 14 24 15 6 1 21 6 35 12 32 12 16 12 -90 -4z"></path>
      <path id="p1B1dwAKeu" d="M10287 11552 c-10 -10 -17 -26 -17 -36 0 -9 -7 -19 -15 -22 -8 -4 -15 -16 -15 -28 0 -12 -12 -29 -28 -39 -15 -11 -35 -29 -44 -42 -16 -21 -16 -25 -3 -39 24 -24 17 -36 -20 -36 -21 0 -37 6 -43 16 -5 10 -19 14 -36 12 l-27 -3 20 -21 c11 -12 17 -24 14 -27 -3 -3 14 -11 37 -18 28 -9 44 -9 48 -2 4 5 19 13 35 17 15 3 27 11 27 17 0 13 25 39 37 39 5 0 22 23 38 50 16 28 32 50 36 50 3 0 12 18 19 40 7 22 17 40 22 40 4 0 8 11 8 25 0 22 -4 25 -38 25 -25 0 -45 -7 -55 -18z"></path>
      <path id="pB4rdpugW" d="M8240 11531 c0 -6 -15 -11 -32 -12 -18 0 -27 -3 -20 -6 15 -6 16 -30 1 -35 -18 -6 32 -76 59 -83 12 -3 22 -10 22 -16 0 -8 5 -7 15 1 27 22 19 90 -15 129 -17 18 -30 29 -30 22z"></path>
      <path id="p1F7ubRCPp" d="M10210 11273 c0 -11 -50 -33 -72 -33 -10 0 -18 5 -18 10 0 6 -7 10 -15 10 -11 0 -9 -10 9 -51 13 -27 28 -51 32 -51 5 -1 16 13 26 31 9 18 23 40 31 49 23 27 29 42 18 42 -6 0 -11 -3 -11 -7z"></path>
      <path id="pr6AQli9q" d="M7294 11156 c-12 -47 -8 -486 5 -618 1 -5 10 -8 21 -8 15 0 20 -7 20 -25 0 -18 5 -25 20 -25 14 0 20 -7 20 -22 0 -17 3 -19 12 -10 7 7 23 12 36 12 15 0 26 7 29 20 5 19 29 24 126 23 9 0 17 4 17 9 0 4 8 8 18 8 17 0 42 41 42 70 0 33 33 47 117 53 76 5 83 4 104 -19 12 -13 26 -24 31 -24 12 0 58 -47 58 -60 0 -5 -12 -10 -27 -11 -16 0 -22 -3 -15 -6 19 -8 14 -29 -10 -41 -20 -11 -19 -11 12 -6 19 4 46 12 60 19 14 7 41 16 60 20 57 11 70 16 70 26 0 5 -9 9 -19 9 -21 0 -61 48 -61 73 0 9 -8 18 -18 21 -22 7 -38 45 -54 126 -12 60 -16 66 -50 83 -33 16 -37 23 -43 68 -6 41 -12 52 -32 60 -13 5 -31 16 -39 24 -9 8 -32 15 -52 15 -55 0 -92 38 -92 94 0 56 -15 68 -82 64 l-53 -3 -3 -55 c-4 -88 -14 -100 -84 -100 -77 0 -98 12 -98 54 0 18 -9 50 -19 72 l-19 39 -8 -29z"></path>
      <path id="pWwAqaHuG" d="M7651 10430 c-13 -11 -29 -20 -36 -20 -7 0 -15 -7 -19 -15 -4 -10 -20 -15 -51 -15 -25 0 -45 -4 -45 -10 0 -23 -32 -7 -45 23 l-14 32 -1 -42 c0 -24 -4 -43 -8 -43 -5 0 -22 -11 -38 -25 -31 -27 -82 -33 -103 -12 -10 10 -12 -7 -10 -85 1 -54 6 -95 10 -92 5 3 7 10 4 15 -3 5 0 6 8 3 8 -3 18 -1 21 5 4 6 13 8 22 4 12 -4 12 -8 2 -22 -12 -14 -11 -15 5 -2 13 10 15 17 6 27 -9 11 -5 17 20 27 17 7 29 16 26 19 -10 9 46 40 65 35 11 -3 17 1 16 12 -1 11 7 16 26 16 21 -1 24 2 16 12 -8 10 -3 14 21 19 17 4 29 10 26 14 -3 4 26 22 63 41 80 39 92 50 91 81 0 13 -3 17 -6 11 -6 -15 -33 -17 -33 -3 0 15 -12 12 -39 -10z m-316 -180 c3 -5 -3 -10 -14 -10 -12 0 -21 5 -21 10 0 6 6 10 14 10 8 0 18 -4 21 -10z"></path>
      <path id="p1CHBYjnTg" d="M9860 10370 c0 -5 7 -10 15 -10 8 0 15 5 15 10 0 6 -7 10 -15 10 -8 0 -15 -4 -15 -10z"></path>
      <path id="ply7MMP68" d="M9720 10354 c0 -7 -6 -14 -12 -17 -10 -3 -10 -7 0 -19 9 -12 11 -48 8 -140 -4 -104 -9 -133 -31 -181 -22 -51 -25 -70 -24 -165 1 -59 5 -120 9 -137 5 -20 7 -3 6 52 -1 73 1 84 23 107 29 31 67 34 76 7 6 -21 38 -36 55 -26 15 9 12 -12 -5 -45 -9 -17 -21 -30 -28 -30 -6 0 -18 -12 -24 -27 -11 -22 -10 -31 2 -50 9 -13 22 -23 30 -23 25 0 36 -38 38 -130 1 -64 6 -90 15 -90 6 0 12 -7 12 -15 0 -8 -7 -15 -15 -15 -8 0 -15 5 -15 11 0 6 -8 3 -17 -7 -15 -14 -18 -36 -18 -117 0 -71 -4 -102 -12 -104 -7 -3 -13 2 -13 11 0 9 -7 16 -15 16 -9 0 -18 12 -21 30 -5 23 -12 30 -29 30 -45 0 -50 91 -7 141 l27 33 -27 -19 c-37 -27 -51 -74 -43 -144 5 -48 3 -65 -14 -97 -12 -21 -21 -43 -21 -48 0 -5 -7 -18 -17 -28 -15 -17 -14 -18 16 -18 39 0 53 -26 26 -46 -17 -12 -10 -14 53 -14 l72 0 0 40 c0 29 4 40 15 40 13 0 14 4 5 20 -9 16 -8 20 5 20 14 0 16 -10 13 -60 -4 -67 -2 -70 69 -70 45 0 86 23 60 33 -8 3 -19 40 -26 88 -7 46 -15 95 -17 109 -3 14 -7 43 -9 65 -3 22 -10 85 -17 140 -17 149 -13 476 8 621 15 108 19 121 36 116 10 -2 18 1 18 7 0 6 -7 11 -16 11 -14 0 -16 9 -11 60 l5 60 -31 0 c-18 1 -62 7 -99 14 -55 10 -68 10 -68 0z"></path>
      <path id="pqeIp5lYZ" d="M9900 10130 c0 -5 7 -10 15 -10 8 0 15 5 15 10 0 6 -7 10 -15 10 -8 0 -15 -4 -15 -10z"></path>
      <path id="pw8TPyLs" d="M9701 9607 c2 -1 14 -11 27 -21 12 -11 22 -16 22 -13 0 10 -31 37 -42 37 -6 0 -9 -1 -7 -3z"></path>
      <path id="pDwUTbmKi" d="M7890 9530 c0 -7 -7 -10 -15 -6 -21 8 -45 -3 -45 -20 0 -8 -5 -14 -11 -14 -6 0 -28 -13 -48 -29 -20 -16 -55 -33 -76 -37 -40 -7 -85 -32 -117 -65 -11 -11 -41 -21 -78 -25 -33 -4 -60 -11 -60 -16 0 -5 -7 -17 -16 -25 -11 -12 -14 -26 -9 -52 4 -20 10 -38 14 -41 13 -8 34 -109 28 -136 -2 -14 1 -28 8 -32 7 -4 15 -18 17 -32 2 -17 19 -34 58 -57 91 -54 93 -54 112 -30 10 12 23 28 28 35 15 17 140 15 163 -2 18 -14 23 -46 7 -46 -5 0 -10 -9 -10 -20 0 -11 5 -20 10 -20 6 0 10 -9 10 -21 0 -16 4 -19 17 -15 9 4 43 15 75 24 45 13 60 22 64 40 4 12 9 22 14 22 4 0 17 9 30 20 20 18 21 21 6 35 -9 9 -16 22 -16 30 0 7 -10 15 -22 18 -27 7 -48 64 -48 131 0 53 33 116 60 116 10 0 20 5 22 10 2 6 49 11 113 12 117 1 137 -4 192 -57 12 -12 41 -31 65 -44 52 -27 98 -88 98 -130 0 -17 -4 -31 -10 -31 -5 0 -10 -4 -10 -8 0 -5 7 -9 15 -9 12 0 15 15 15 77 0 42 -4 80 -9 85 -4 6 -11 25 -14 43 -7 37 9 44 23 10 6 -16 8 6 7 69 -2 89 -3 92 -24 90 -13 -1 -23 -5 -23 -10 0 -5 -12 -7 -27 -4 -34 6 -83 -11 -83 -29 0 -23 22 -42 42 -36 13 3 18 -1 18 -17 0 -13 10 -26 25 -33 30 -14 34 -48 5 -48 -11 0 -20 5 -20 10 0 6 -6 10 -14 10 -8 0 -21 8 -28 18 -17 22 -53 42 -77 42 -12 0 -21 9 -25 24 -7 27 -68 61 -97 53 -10 -3 -22 -1 -25 5 -3 5 -17 7 -31 3 -14 -3 -22 -2 -19 3 5 9 -64 46 -74 40 -3 -2 -12 3 -20 10 -8 7 -29 23 -47 35 -17 12 -50 37 -72 55 -23 19 -41 28 -41 22z m210 -205 c0 -8 -4 -15 -10 -15 -5 0 -10 7 -10 15 0 8 5 15 10 15 6 0 10 -7 10 -15z m440 -12 c-1 -25 -14 -53 -26 -53 -17 0 -18 26 -1 45 13 16 27 19 27 8z"></path>
      <path id="pb8Za7uzN" d="M9298 9064 c-16 -8 -28 -16 -28 -18 0 -2 27 -4 60 -5 36 -1 60 3 60 9 0 5 -7 10 -15 10 -8 0 -15 5 -15 10 0 14 -31 12 -62 -6z"></path>
      <path id="p11OjUqGjM" d="M9397 8699 c16 -16 175 -18 191 -2 11 11 -5 13 -94 13 -76 0 -105 -3 -97 -11z"></path>
      <path id="pkZPWwOw9" d="M9660 8696 c0 -22 60 -40 126 -38 35 1 65 -2 69 -8 3 -5 16 -10 28 -10 35 -1 54 -22 97 -106 l41 -79 5 -150 c2 -82 7 -165 10 -183 5 -34 54 -92 86 -105 9 -3 24 -20 33 -37 9 -17 24 -40 33 -50 18 -21 52 -27 52 -9 0 7 13 8 39 4 30 -5 40 -3 45 10 7 18 -5 45 -28 65 -9 7 -16 21 -16 31 0 11 -9 28 -20 39 -11 11 -20 28 -20 38 0 19 -54 167 -93 252 -32 71 -107 284 -107 303 0 16 -23 19 -222 32 -59 4 -78 2 -78 -7 0 -9 -3 -10 -8 -2 -12 18 -72 26 -72 10z"></path>
      <path id="p1HL5N8BGm" d="M9014 8674 c10 -9 24 -13 36 -9 28 9 15 25 -21 25 -28 0 -29 -1 -15 -16z"></path>
      <path id="p6RvLCidb" d="M7346 8565 c-20 -15 -20 -15 0 -15 10 0 28 7 38 15 20 15 20 15 0 15 -10 0 -28 -7 -38 -15z"></path>
      <path id="pK4kzq69Y" d="M7280 8505 c0 -19 2 -35 4 -35 2 0 11 12 21 26 14 22 15 28 4 35 -24 15 -29 10 -29 -26z"></path>
      <path id="pV3tLVBl9" d="M7600 8313 c-51 -40 -63 -53 -50 -53 6 0 20 9 32 20 12 11 32 20 44 20 13 0 24 8 27 20 7 28 -11 25 -53 -7z"></path>
      <path id="pw3KyHV9R" d="M7487 8229 c-21 -17 -36 -34 -33 -36 3 -3 22 11 43 31 47 44 41 47 -10 5z"></path>
      <path id="p9CxeQhDe" d="M8880 7960 c0 -17 4 -20 20 -15 15 5 20 2 20 -10 0 -12 -6 -16 -20 -12 -19 5 -20 0 -20 -95 0 -95 1 -100 20 -95 16 4 20 0 20 -19 0 -13 -4 -24 -10 -24 -5 0 -10 7 -10 15 0 8 -4 15 -10 15 -6 0 -10 -27 -10 -60 0 -53 2 -60 20 -60 30 0 42 35 45 134 1 50 6 114 9 141 8 62 -8 99 -47 103 -22 3 -27 -1 -27 -18z"></path>
      <path id="pcs1RAyeB" d="M7645 7837 c4 -143 13 -161 80 -172 46 -6 70 0 49 13 -6 4 -15 17 -19 30 -3 13 -18 28 -31 34 -13 6 -24 18 -25 27 0 9 -13 54 -29 101 l-28 85 3 -118z"></path>
      <path id="pnieXWPmt" d="M8864 7665 c0 -49 1 -71 3 -48 2 23 2 64 0 90 -2 26 -3 8 -3 -42z"></path>
      <path id="p15C8TXhwE" d="M10460 7711 c13 -25 13 -27 -6 -45 -14 -15 -14 -17 3 -23 10 -4 26 -15 35 -26 18 -20 18 -19 14 9 -2 16 -13 46 -26 67 -23 38 -39 52 -20 18z"></path>
      <path id="pSjBiVuL9" d="M8480 7607 c-16 -8 -24 -18 -22 -29 4 -20 -2 -22 -27 -9 -28 16 -43 0 -27 -30 9 -18 12 -50 8 -102 -4 -70 -8 -80 -38 -112 -18 -19 -38 -35 -45 -35 -7 0 -10 -3 -7 -6 3 -3 21 1 39 9 19 8 42 13 52 11 20 -3 35 25 48 91 6 31 7 26 3 -22 -5 -58 -3 -63 15 -63 11 0 31 4 45 10 l26 9 -2 146 c-1 140 -2 145 -22 144 -12 0 -32 -6 -46 -12z"></path>
      <path id="p1DEDEPERe" d="M9190 7449 c-24 -8 -23 -8 6 -6 17 1 38 -4 45 -10 18 -15 104 -36 121 -30 8 2 1 9 -17 17 -16 7 -45 18 -63 26 -36 15 -55 16 -92 3z"></path>
      <path id="pAAnOMimA" d="M9975 7420 c17 -4 44 -8 60 -8 l30 0 -30 8 c-16 4 -43 8 -60 8 l-30 0 30 -8z"></path>
      <path id="pSOLjSIAZ" d="M8862 7390 c0 -19 2 -27 5 -17 2 9 2 25 0 35 -3 9 -5 1 -5 -18z"></path>
      <path id="p1DQjg7Qje" d="M10093 7413 c9 -2 25 -2 35 0 9 3 1 5 -18 5 -19 0 -27 -2 -17 -5z"></path>
      <path id="p2Bg6nnCy" d="M9635 7400 c-18 -8 -18 -9 5 -9 14 0 34 4 45 9 18 8 18 9 -5 9 -14 0 -34 -4 -45 -9z"></path>
      <path id="p1HWixMvCs" d="M10025 7386 l-60 -12 134 -13 c73 -6 136 -10 138 -7 6 5 -64 26 -89 26 -9 0 -20 5 -23 10 -7 12 -20 11 -100 -4z"></path>
      <path id="pnShj5ZjO" d="M8880 7376 c0 -9 7 -12 20 -9 11 3 20 9 20 14 0 5 -9 9 -20 9 -11 0 -20 -6 -20 -14z"></path>
      <path id="p15KCP6HgR" d="M10380 7355 c33 -19 49 -19 24 0 -10 8 -26 14 -34 14 -9 0 -4 -6 10 -14z"></path>
      <path id="pvkxeRGhM" d="M10315 7349 c-22 -8 -22 -9 15 -15 14 -2 36 -6 50 -9 24 -6 24 -6 5 8 -30 21 -48 25 -70 16z"></path>
      <path id="p19J8AOX2m" d="M10785 7250 c-3 -5 3 -10 15 -10 12 0 18 5 15 10 -3 6 -10 10 -15 10 -5 0 -12 -4 -15 -10z"></path>
    </g>
  </g>
  <g id="l7e7vnx9pJWpa2Sq3vTaCR8" fill="rgb(67,129,75)" style="transform: none;">
    <g style="transform: none;">
      <path id="pRH76j0Xd" d="M6790 14930 c0 -12 -9 -11 135 -15 122 -3 148 1 124 16 -20 12 -259 11 -259 -1z"></path>
      <path id="p19jMnqgd9" d="M7094 14909 c-7 -12 -9 -11 46 -36 25 -12 56 -33 69 -47 14 -14 32 -26 40 -26 13 0 13 -2 2 -9 -9 -6 -10 -14 -5 -24 7 -11 14 -13 24 -7 12 8 11 10 -5 10 -15 0 -17 2 -6 9 15 10 7 31 -13 31 -19 0 -42 30 -38 50 4 24 -101 69 -114 49z"></path>
      <path id="pf9pwQAa" d="M6623 14881 c-65 -47 -97 -139 -70 -202 l14 -34 -5 47 c-7 75 33 149 101 184 15 8 27 19 27 24 0 18 -26 10 -67 -19z"></path>
      <path id="p1DOBr5U96" d="M6775 14805 c-44 -16 -105 -75 -105 -102 0 -31 60 -123 86 -133 36 -14 54 -11 23 3 -41 19 -62 39 -49 47 9 5 7 16 -4 38 -9 17 -16 41 -16 52 0 27 49 77 81 84 13 2 44 9 69 14 l45 10 -45 0 c-25 1 -63 -5 -85 -13z"></path>
      <path id="p1CCcHgdPw" d="M6951 14806 c2 -2 24 -6 48 -9 29 -4 40 -2 30 4 -13 8 -88 14 -78 5z"></path>
      <path id="pfrALuFSO" d="M7115 14742 c4 -8 11 -26 15 -40 7 -22 8 -23 9 -6 1 11 -6 29 -15 40 -8 10 -12 13 -9 6z"></path>
      <path id="pDIsZTkQo" d="M7282 14684 c-7 -8 -8 -14 -2 -14 5 0 10 -7 10 -15 0 -8 -4 -15 -10 -15 -5 0 -16 -15 -25 -34 -28 -58 -111 -116 -168 -116 -16 0 -26 -4 -22 -10 3 -5 20 -7 38 -3 43 8 118 43 112 53 -5 9 23 34 49 44 10 3 16 9 12 13 -3 3 0 13 8 22 14 17 27 79 17 85 -3 2 -12 -2 -19 -10z"></path>
      <path id="pFfzSQM9J" d="M7129 14637 c-9 -18 -24 -31 -33 -31 -9 1 -16 -3 -16 -8 0 -6 -7 -8 -15 -4 -8 3 -15 0 -15 -6 0 -6 -11 -8 -29 -5 -17 4 -31 2 -33 -4 -2 -6 -28 -11 -58 -11 -30 1 -71 -3 -90 -8 -26 -7 -8 -8 65 -5 129 5 215 31 233 68 19 39 10 52 -9 14z"></path>
      <path id="pVRIqLRj4" d="M6579 14623 c5 -10 22 -29 37 -43 26 -23 25 -22 -5 18 -34 43 -49 55 -32 25z"></path>
      <path id="pqI12yh8t" d="M7784 14610 c-6 -6 -39 -15 -75 -21 -59 -9 -189 -63 -189 -79 0 -3 -16 -24 -35 -46 -43 -48 -74 -128 -81 -208 -7 -81 18 -215 53 -283 32 -65 100 -128 154 -145 22 -6 39 -15 39 -19 0 -5 7 -6 15 -3 8 4 21 2 28 -3 6 -5 53 -8 102 -8 75 1 100 6 152 30 35 15 61 31 58 35 -5 9 44 55 68 63 19 7 23 27 5 27 -6 0 -4 6 7 13 10 8 15 19 12 24 -4 6 0 13 8 17 18 7 20 26 3 26 -7 0 -25 -24 -39 -52 -15 -29 -34 -57 -44 -63 -9 -5 -35 -26 -56 -47 -55 -51 -121 -65 -184 -38 -25 11 -45 23 -45 28 0 11 45 32 68 32 22 0 119 45 137 64 8 8 15 26 15 40 0 15 9 59 20 98 11 40 21 86 21 103 1 17 3 22 6 13 6 -25 33 -23 33 2 0 11 4 20 9 20 13 0 41 -29 41 -43 0 -7 4 -6 10 3 7 11 10 2 10 -32 0 -36 4 -48 15 -48 8 0 15 5 15 10 0 6 -4 10 -10 10 -15 0 -13 137 3 143 7 3 5 6 -5 6 -22 1 -24 21 -3 21 8 0 15 7 15 15 0 8 -8 15 -17 15 -12 0 -14 3 -7 8 7 4 12 19 12 35 0 20 -5 27 -20 27 -10 0 -16 5 -13 10 3 6 2 10 -3 10 -6 0 -8 9 -5 21 4 15 0 22 -16 26 -11 3 -18 9 -15 15 9 15 -15 36 -36 31 -25 -7 -25 -19 -1 -33 25 -13 64 -77 56 -90 -3 -5 -13 -10 -21 -10 -16 0 -19 -36 -3 -46 8 -4 7 -9 -2 -15 -12 -7 -12 -12 -1 -30 15 -24 9 -36 -10 -20 -7 6 -22 19 -34 29 -11 9 -29 39 -39 66 -11 27 -35 67 -56 88 -28 30 -34 41 -25 53 17 22 62 35 98 29 28 -5 25 -2 -22 24 -31 17 -72 33 -93 37 -20 4 -37 11 -37 16 0 12 -34 11 -46 -1z m49 -123 c98 -44 141 -130 141 -287 1 -94 -31 -208 -67 -245 -18 -18 -19 -18 -14 -2 4 11 3 16 -3 12 -6 -3 -10 -12 -10 -20 0 -8 -5 -17 -12 -21 -7 -5 -9 -2 -5 9 4 11 2 14 -8 11 -8 -3 -12 -11 -9 -19 3 -7 -2 -15 -11 -19 -9 -3 -18 0 -21 9 -8 19 -24 19 -24 0 0 -20 -78 -20 -123 -1 -72 30 -166 186 -112 186 17 0 18 2 9 24 -3 9 -12 16 -20 16 -8 0 -14 10 -14 25 0 16 6 25 15 25 9 0 15 9 15 25 0 16 -6 25 -15 25 -19 0 -19 27 0 101 9 33 13 64 10 69 -11 17 6 52 21 46 8 -3 29 3 47 14 17 11 42 20 54 20 12 0 25 5 28 10 11 17 72 11 128 -13z"></path>
      <path id="ps3Gxr7f4" d="M3532 14595 c-7 -9 -17 -13 -22 -10 -20 12 -23 -63 -15 -415 4 -201 7 -382 7 -402 -1 -20 3 -40 8 -43 15 -9 13 -178 -2 -193 -9 -9 -5 -12 18 -13 28 -2 28 -2 -6 -9 -22 -5 11 -7 90 -8 77 0 113 3 95 8 -16 4 -25 8 -19 9 20 2 34 52 34 122 0 69 12 99 40 99 19 0 60 55 60 81 0 6 14 40 31 76 17 36 34 84 37 106 3 22 16 56 29 75 12 19 23 42 23 51 0 9 3 27 7 40 6 23 5 24 -33 17 -36 -6 -48 -16 -94 -73 -6 -7 -10 -19 -10 -26 0 -8 -6 -30 -14 -48 -7 -19 -16 -69 -20 -112 -6 -73 -24 -128 -64 -205 -20 -39 -53 -40 -63 -2 -4 14 -8 21 -8 15 -1 -5 -6 -3 -10 5 -5 8 -7 198 -4 428 5 348 8 412 20 412 8 0 13 6 11 13 -7 19 -110 21 -126 2z"></path>
      <path id="p10NEefEuu" d="M4490 14445 c0 -77 4 -125 10 -125 6 0 10 -22 10 -49 0 -77 13 -101 53 -101 l34 0 6 191 c4 105 5 195 1 200 -3 5 -30 9 -60 9 l-54 0 0 -125z"></path>
      <path id="pPsH9TCPd" d="M5766 14562 c-3 -5 -5 -98 -5 -208 1 -129 -3 -210 -11 -229 -8 -21 -9 -62 -4 -135 4 -58 9 -98 11 -88 5 22 48 31 76 17 29 -16 37 -28 37 -61 0 -27 -2 -28 -55 -28 -45 0 -55 3 -56 18 0 11 -2 12 -6 4 -10 -26 16 -40 65 -35 26 3 55 5 65 6 24 2 25 87 1 87 -27 0 -9 25 20 26 20 1 34 -9 56 -39 34 -46 76 -77 105 -77 12 0 4 8 -22 20 -24 10 -43 22 -43 26 0 18 40 33 90 34 36 0 50 3 41 9 -8 5 -29 7 -47 4 -18 -3 -55 2 -84 12 -51 17 -53 20 -85 89 -44 96 -50 139 -50 361 l0 190 -47 3 c-25 2 -49 -1 -52 -6z"></path>
      <path id="p1HGAEkrgJ" d="M6320 14547 c0 -17 5 -27 15 -27 19 0 19 9 0 34 -14 19 -15 19 -15 -7z"></path>
      <path id="ppB7lDZos" d="M6658 14545 c-4 -4 -4 -14 -1 -23 4 -10 2 -13 -5 -8 -8 5 -12 0 -12 -14 0 -11 -7 -23 -15 -26 -9 -4 -15 -19 -15 -40 0 -26 10 -45 41 -79 l41 -44 -36 -47 c-20 -26 -43 -71 -51 -99 -14 -46 -14 -59 0 -120 21 -88 34 -112 94 -173 40 -40 60 -52 114 -67 82 -22 175 -17 232 14 48 25 82 27 114 5 15 -11 49 -18 95 -20 l71 -3 -69 10 c-93 13 -117 36 -83 83 11 15 18 16 60 5 26 -6 47 -15 47 -20 0 -5 7 -9 15 -9 8 0 15 8 15 19 0 14 -6 17 -23 14 -12 -2 -35 1 -51 7 -27 10 -28 13 -22 50 4 25 2 40 -4 40 -5 0 -10 11 -10 25 0 15 6 25 14 25 15 0 27 35 19 56 -3 8 -11 14 -19 14 -8 0 -14 7 -14 15 0 8 5 15 10 15 18 0 11 20 -7 21 -11 0 -13 3 -5 6 18 7 15 23 -5 23 -12 0 -14 3 -6 8 8 5 3 11 -13 19 -27 13 -27 13 -14 -21 8 -21 7 -26 -6 -26 -10 0 -14 6 -10 15 6 16 -4 18 -61 17 -18 -1 -56 10 -85 23 -29 14 -63 25 -75 25 -13 0 -23 6 -23 13 0 9 -3 8 -9 -2 -10 -16 -31 -6 -31 14 0 10 6 12 18 8 14 -6 15 -4 4 9 -10 13 -10 17 4 22 49 19 165 -9 222 -54 29 -24 62 -26 62 -5 0 9 -6 12 -15 9 -17 -7 -105 46 -105 63 0 14 -17 19 -93 28 -46 5 -58 3 -63 -9 -8 -20 -32 -28 -54 -16 -13 7 -20 6 -22 -2 -5 -14 -33 2 -34 20 -3 37 -5 40 -24 35 -12 -3 -20 0 -20 8 0 7 -3 10 -6 6 -3 -3 1 -16 10 -29 9 -12 16 -33 16 -46 0 -15 7 -26 20 -29 11 -3 20 -9 20 -14 0 -5 8 -9 18 -10 10 0 12 -3 5 -6 -7 -2 -13 -10 -13 -17 0 -7 -15 -33 -34 -57 -65 -84 -70 -186 -12 -262 17 -22 45 -45 61 -50 39 -13 42 -16 25 -28 -11 -8 -12 -12 -2 -16 6 -2 12 -10 12 -17 0 -20 -52 -6 -57 15 -3 11 -14 19 -24 19 -11 0 -19 6 -19 14 0 7 -7 27 -15 42 -8 16 -15 36 -15 45 0 24 -35 59 -58 59 -28 0 -62 46 -62 84 0 42 42 129 80 166 l31 30 -46 43 c-38 37 -45 49 -45 82 0 25 7 46 21 61 18 19 25 77 7 59z m345 -325 c23 -11 51 -32 61 -47 22 -30 33 -115 19 -146 -6 -12 -16 -35 -22 -50 -6 -15 -15 -25 -21 -22 -5 3 -19 -8 -32 -25 -12 -17 -28 -28 -35 -26 -7 3 -13 1 -13 -5 0 -6 -7 -9 -15 -5 -8 3 -15 0 -15 -7 0 -9 -3 -8 -9 1 -5 8 -17 11 -32 7 -45 -11 -147 47 -117 67 9 5 8 8 -5 8 -10 0 -15 5 -12 10 3 6 0 10 -7 10 -10 0 -10 2 1 9 10 7 14 26 12 65 -4 93 37 151 119 167 59 11 79 10 123 -11z"></path>
      <path id="pApBmXsyV" d="M5385 14530 c-4 -7 -18 -10 -31 -7 -40 7 -46 -21 -14 -68 61 -90 64 -99 63 -250 0 -153 -10 -194 -61 -248 -49 -52 -78 -62 -184 -61 -54 0 -98 -3 -98 -8 0 -4 5 -8 10 -8 6 0 10 -6 10 -14 0 -26 29 -44 82 -50 29 -4 71 -9 93 -12 26 -3 35 -2 26 4 -9 7 1 12 35 17 27 4 57 13 68 21 11 8 29 14 40 14 11 0 16 3 13 7 -9 8 32 53 49 53 7 0 16 4 19 10 4 6 -1 7 -11 3 -14 -5 -15 -3 -5 15 7 12 18 22 26 22 7 0 17 4 20 10 4 6 -1 7 -11 3 -13 -5 -15 -2 -10 13 41 132 32 342 -19 429 -32 55 -101 120 -110 105z"></path>
      <path id="pVaxCXAbq" d="M6862 14473 c-18 -2 -30 -8 -27 -13 7 -11 183 -2 205 11 15 8 -112 10 -178 2z"></path>
      <path id="ppdrMOC60" d="M6760 14445 l-25 -14 28 -1 c16 0 26 4 22 9 -3 5 3 12 12 14 13 3 13 5 3 5 -8 1 -26 -5 -40 -13z"></path>
      <path id="pKSejllyj" d="M5743 14240 c0 -25 2 -35 4 -22 2 12 2 32 0 45 -2 12 -4 2 -4 -23z"></path>
      <path id="pLE7ugkUl" d="M4220 14111 c-17 -33 -11 -76 22 -163 42 -110 65 -148 90 -148 17 0 20 5 15 29 -3 15 -2 32 4 38 14 14 -37 165 -72 214 -10 15 -19 32 -19 38 0 18 -29 12 -40 -8z"></path>
      <path id="p6uiiSWaK" d="M6300 14067 c-19 -18 -42 -46 -50 -62 -16 -31 -62 -75 -89 -86 -12 -5 -9 -8 12 -14 15 -4 27 -11 27 -16 0 -5 12 -9 28 -9 16 0 32 -8 39 -19 10 -16 8 -20 -14 -32 -14 -8 -54 -14 -88 -14 -35 0 -61 -3 -58 -7 5 -10 108 -8 148 2 17 4 26 8 21 9 -11 1 61 54 89 65 13 5 15 10 8 13 -19 7 -16 23 5 24 10 0 12 3 5 6 -19 7 -16 23 5 24 10 0 12 3 5 6 -8 3 -13 25 -13 60 0 41 -5 59 -17 69 -24 18 -24 18 -63 -19z"></path>
      <path id="p08cnAWub" d="M8118 14073 c-25 -6 -23 -22 2 -20 11 1 20 7 20 14 0 7 -1 12 -2 12 -2 -1 -11 -3 -20 -6z"></path>
      <path id="pPTXzdTFE" d="M4531 14065 c-9 -49 -11 -267 -3 -295 20 -68 34 -170 27 -187 -13 -31 -14 -63 -2 -63 7 0 6 -4 -3 -10 -11 -7 -6 -10 21 -10 l37 0 -3 123 c-1 67 -3 161 -4 210 -1 78 -3 87 -20 87 -11 0 -21 9 -25 23 -9 35 -7 77 4 77 6 0 10 5 10 10 0 6 -6 10 -14 10 -8 0 -17 8 -19 18 -3 9 -5 13 -6 7z"></path>
      <path id="phQxlxgKc" d="M11500 12291 c0 -5 -16 -16 -35 -25 -19 -10 -35 -25 -35 -34 0 -9 -7 -26 -15 -36 -10 -14 -15 -45 -15 -102 l0 -82 -85 -40 c-47 -23 -85 -46 -85 -52 0 -14 39 -3 63 18 9 8 17 12 17 9 0 -3 16 1 35 9 59 24 66 19 107 -83 14 -36 28 -43 28 -15 0 37 43 -46 89 -173 4 -11 17 -40 29 -65 37 -79 37 -125 3 -246 -33 -121 -61 -238 -61 -260 0 -8 6 -14 13 -14 9 0 20 29 31 83 10 45 34 138 54 206 24 87 32 126 24 129 -18 6 -14 22 6 23 10 0 12 3 5 6 -18 7 -16 33 2 33 8 0 22 16 30 36 l15 37 18 -24 c26 -34 38 -70 62 -189 12 -58 40 -177 62 -265 22 -88 44 -180 49 -205 19 -98 49 -307 49 -333 0 -26 1 -27 16 -13 8 9 24 16 36 16 18 0 20 6 19 88 -1 48 1 157 3 242 5 155 5 155 -25 218 -16 34 -29 69 -29 76 0 8 -4 17 -10 21 -5 3 -9 25 -8 50 0 29 -6 53 -21 73 -28 41 -61 119 -61 147 0 13 -5 27 -10 30 -7 4 -10 40 -9 88 1 45 -4 108 -10 140 l-13 58 47 44 c25 25 52 45 59 45 9 0 12 41 11 164 0 90 -3 168 -7 172 -5 4 -8 -7 -8 -24 0 -18 -4 -32 -10 -32 -5 0 -10 -9 -10 -20 0 -20 -8 -24 -89 -35 -27 -3 -47 -2 -51 5 -3 5 -58 28 -120 49 -63 22 -116 44 -118 50 -4 13 -42 15 -42 2z m450 -1306 c0 -8 -7 -15 -15 -15 -8 0 -15 7 -15 15 0 8 7 15 15 15 8 0 15 -7 15 -15z"></path>
      <path id="pHyhqYZwj" d="M11172 11898 c-19 -19 -14 -30 8 -18 11 6 20 15 20 20 0 14 -14 12 -28 -2z"></path>
      <path id="pbc9Zn5ca" d="M11090 11842 c-63 -40 -99 -90 -39 -55 33 20 75 61 68 67 -2 2 -15 -3 -29 -12z"></path>
      <path id="p12k64FEcb" d="M10987 11762 c-9 -10 -17 -25 -17 -33 0 -11 -2 -11 -8 -1 -6 9 -30 -10 -84 -67 -42 -44 -74 -82 -71 -85 3 -3 35 23 72 58 36 35 81 77 100 93 19 16 32 35 30 42 -3 9 -10 7 -22 -7z"></path>
      <path id="pKA7uWoB4" d="M10756 11529 c-39 -46 -49 -74 -15 -43 28 26 62 74 56 80 -2 3 -21 -14 -41 -37z"></path>
      <path id="p16OBjg980" d="M12678 11398 c2 -10 9 -18 14 -18 5 0 6 5 3 10 -3 6 1 10 9 10 9 0 16 3 16 8 0 4 -11 7 -23 7 -18 0 -23 -5 -19 -17z"></path>
      <path id="pyHd0q97x" d="M12825 11167 c5 -17 3 -27 -4 -27 -6 0 -17 -15 -25 -34 -23 -55 8 -184 53 -223 43 -38 131 -43 131 -8 0 7 6 16 13 18 9 4 9 6 -1 6 -7 1 -10 6 -7 11 3 6 1 10 -6 10 -7 0 -9 3 -6 7 4 3 -1 12 -11 19 -13 11 -14 13 -2 14 10 0 8 5 -7 15 -26 19 -47 72 -30 79 7 2 4 5 -5 5 -18 1 -33 34 -24 50 4 5 -3 12 -14 16 -11 3 -20 12 -20 19 0 7 -9 21 -21 32 -20 18 -20 18 -14 -9z"></path>
      <path id="pz8tnrISI" d="M11515 10999 c-15 -77 -16 -92 -4 -100 11 -7 10 -9 -3 -9 -21 0 -25 -45 -5 -53 7 -3 5 -6 -5 -6 -13 -1 -18 -9 -18 -31 0 -18 5 -30 13 -30 8 0 20 44 35 133 13 72 26 144 29 160 4 20 1 27 -10 27 -10 0 -19 -25 -32 -91z"></path>
      <path id="pMStdWXF" d="M11466 10729 c-10 -51 -7 -97 7 -102 7 -3 5 -6 -5 -6 -22 -1 -26 -66 -4 -74 10 -4 15 10 20 56 4 34 9 83 13 110 4 38 3 47 -9 47 -9 0 -18 -13 -22 -31z"></path>
      <path id="pl9NbiAQX" d="M11440 10485 c0 -8 7 -15 15 -15 8 0 15 7 15 15 0 8 -7 15 -15 15 -8 0 -15 -7 -15 -15z"></path>
      <path id="p11rTbSJAK" d="M11450 10380 c0 -16 -4 -30 -10 -30 -5 0 -10 -4 -10 -10 0 -5 7 -10 15 -10 11 0 15 11 15 40 0 22 -2 40 -5 40 -3 0 -5 -13 -5 -30z"></path>
      <path id="pCmJMWwfW" d="M10220 10280 c0 -22 2 -40 4 -40 2 0 6 18 8 40 2 22 0 40 -4 40 -5 0 -8 -18 -8 -40z"></path>
      <path id="p1BFRz2VXR" d="M11420 10271 c0 -5 6 -12 13 -14 10 -4 10 -6 0 -6 -20 -1 -17 -81 2 -81 12 0 15 13 15 55 0 42 -3 55 -15 55 -8 0 -15 -4 -15 -9z"></path>
      <path id="pDI14o8dh" d="M11423 10025 c-10 -11 -10 -15 0 -18 9 -4 9 -6 0 -6 -7 -1 -13 -7 -13 -15 0 -8 6 -17 13 -19 10 -4 10 -6 0 -6 -10 -1 -13 -27 -13 -96 0 -78 3 -95 15 -95 8 0 15 -9 15 -20 0 -11 -4 -20 -10 -20 -5 0 -10 -18 -10 -40 0 -29 4 -40 15 -40 17 0 18 63 6 276 -5 89 -9 109 -18 99z"></path>
      <path id="p10S9WpdQI" d="M10181 9749 c0 -79 4 -162 8 -184 4 -22 5 41 3 140 -2 99 -6 182 -8 184 -2 2 -4 -61 -3 -140z"></path>
      <path id="p12mwgtlTK" d="M11938 9083 c-3 -21 -1 -39 4 -41 18 -8 8 -82 -14 -104 -23 -23 -36 -69 -45 -160 -3 -32 -9 -58 -14 -58 -5 0 -9 -13 -9 -30 0 -22 -5 -30 -18 -30 -13 0 -25 -17 -41 -54 -27 -66 -82 -133 -100 -122 -7 5 -10 14 -7 22 3 8 2 14 -3 14 -4 0 -20 36 -35 80 -30 85 -35 93 -54 81 -16 -10 -3 -51 17 -51 12 0 13 -2 3 -9 -19 -12 22 -117 54 -137 33 -22 32 -79 -1 -143 -14 -27 -37 -90 -50 -140 -22 -80 -25 -114 -25 -254 0 -117 -5 -176 -15 -212 -9 -27 -20 -93 -26 -145 -5 -52 -14 -131 -20 -175 -6 -44 -14 -120 -18 -170 -8 -81 -29 -177 -45 -203 -8 -13 211 -165 226 -156 7 4 8 3 4 -4 -14 -23 29 -11 68 18 21 16 43 27 49 23 6 -3 7 -1 3 5 -8 13 28 35 39 24 5 -4 5 -2 2 4 -7 11 47 66 96 97 15 9 26 21 23 26 -3 5 9 16 27 25 17 8 28 16 22 16 -5 0 4 13 20 29 48 47 57 60 50 81 -5 16 -10 17 -35 8 -17 -5 -30 -14 -30 -18 0 -4 -11 -11 -24 -14 -17 -4 -23 -13 -23 -31 0 -14 -3 -29 -7 -32 -12 -13 -98 -6 -107 8 -7 11 -9 11 -9 1 0 -8 -9 -12 -21 -10 -28 4 -52 75 -46 137 12 126 31 215 52 246 12 18 27 47 33 64 7 17 17 44 23 60 6 17 23 34 40 41 16 7 29 16 29 21 0 5 6 9 14 9 9 0 12 7 9 20 -3 11 0 20 6 20 15 0 14 37 -1 43 -17 5 -17 189 0 195 19 6 33 77 35 182 1 99 1 100 -30 132 -17 19 -33 49 -37 69 -4 21 -13 42 -21 49 -8 7 -15 18 -15 25 0 6 -9 20 -20 30 -11 10 -20 26 -20 36 0 10 -4 20 -9 24 -15 9 -12 127 3 139 8 6 21 44 31 84 11 47 24 78 36 85 11 7 19 18 19 25 0 8 8 27 17 43 15 25 16 31 4 38 -8 6 -12 19 -9 35 3 14 1 26 -3 26 -5 0 -9 9 -9 20 0 11 -5 20 -11 20 -5 0 -9 8 -8 18 5 54 -17 59 -23 5z"></path>
      <path id="p1BEHYDZ28" d="M11521 9068 c-1 -9 -7 -18 -13 -21 -9 -3 -7 -10 7 -21 14 -12 16 -19 8 -22 -18 -8 -16 -24 2 -24 18 0 20 -17 3 -22 -7 -3 -9 -14 -4 -32 8 -33 32 -29 29 5 -3 36 -31 156 -32 137z"></path>
      <path id="pi36I50fz" d="M11546 8883 c-4 -9 -1 -20 6 -25 10 -6 10 -8 -2 -8 -10 0 -7 -7 10 -21 17 -14 21 -22 13 -26 -21 -8 -15 -44 7 -50 23 -6 26 -19 8 -26 -9 -4 -8 -6 2 -6 13 -1 13 -2 0 -11 -8 -5 -12 -11 -9 -14 2 -3 11 -1 19 4 12 7 10 24 -10 104 -24 96 -32 110 -44 79z"></path>
      <path id="paSh4njHr" d="M10660 7993 c0 -6 9 -21 21 -34 l20 -24 -17 30 c-24 39 -24 40 -24 28z"></path>
      <path id="p1D3QW8nRt" d="M10917 7598 c48 -64 103 -128 103 -121 0 4 -10 20 -23 34 -45 53 -67 84 -67 91 0 4 -5 8 -11 8 -8 0 -8 -4 -2 -12z"></path>
      <path id="pHT39Twfc" d="M12216 7584 c-3 -8 -15 -14 -26 -14 -27 0 -27 -48 1 -84 30 -38 18 -86 -37 -161 -33 -44 -41 -61 -30 -63 8 -2 16 -10 18 -19 2 -11 37 20 106 92 89 93 222 247 222 257 0 2 -56 4 -124 4 -99 2 -126 -1 -130 -12z"></path>
      <path id="pitQfuton" d="M11926 7234 c-11 -28 -6 -34 27 -34 22 0 28 3 18 9 -8 5 -11 16 -8 25 5 11 1 16 -12 16 -10 0 -22 -7 -25 -16z"></path>
      <path id="ptdV3mH3C" d="M11415 7066 c17 -14 35 -25 40 -25 11 0 -20 25 -50 41 -11 5 -6 -2 10 -16z"></path>
    </g>
  </g>
</svg>